<?xml version="1.0" encoding="utf-8"?>
<!-- Generator: Adobe Illustrator 14.0.0, SVG Export Plug-In . SVG Version: 6.00 Build 43363)  -->
<!DOCTYPE svg PUBLIC "-//W3C//DTD SVG 1.1//EN" "http://www.w3.org/Graphics/SVG/1.1/DTD/svg11.dtd">
<svg version="1.1" xmlns="http://www.w3.org/2000/svg" xmlns:xlink="http://www.w3.org/1999/xlink" x="0px" y="0px" width="46px"
	 height="46px" viewBox="0 0 46 46" enable-background="new 0 0 46 46" xml:space="preserve">
<g id="Background_xA0_Image_1_">
</g>
<g id="Close_1_" enable-background="new    ">
	<g>
		<polygon fill="#FFFFFF" points="30.389,14.514 23,21.899 15.611,14.514 14.51,15.614 21.898,23 14.51,30.387 15.611,31.487 
			23,24.102 30.389,31.487 31.49,30.387 24.102,23 31.49,15.614 		"/>
		<path fill="#FFFFFF" d="M23,0.169C10.408,0.169,0.163,10.411,0.163,23S10.408,45.831,23,45.831S45.837,35.589,45.837,23
			S35.592,0.169,23,0.169z M23,44.274C11.266,44.274,1.721,34.73,1.721,23C1.721,11.269,11.266,1.726,23,1.726
			S44.279,11.269,44.279,23C44.279,34.73,34.734,44.274,23,44.274z"/>
	</g>
</g>
</svg>
