<?xml version="1.0" encoding="utf-8"?>
<!-- Generator: Adobe Illustrator 19.1.0, SVG Export Plug-In . SVG Version: 6.00 Build 0)  -->
<svg version="1.1" id="Layer_1" xmlns="http://www.w3.org/2000/svg" xmlns:xlink="http://www.w3.org/1999/xlink" x="0px" y="0px"
	 viewBox="0 0 60 60" style="enable-background:new 0 0 60 60;" xml:space="preserve">
<style type="text/css">
	.st0{fill:#FFFFFF;}
</style>
<path class="st0" d="M22.1,6.8c-0.1-0.2-0.3-0.3-0.3-0.5c0-0.2,0.3-0.3,0.3-0.4c0,0,0.1,0,0.1,0.1c0-0.2,0-0.3,0-0.4
	c-0.8-0.2-0.8-0.2-0.8-1c0-0.5,0-0.9,0-1.4c0-0.3,0.1-0.5,0.3-0.6c0.1,0,0.2-0.1,0.2-0.2C22,2.1,22.3,2,22.5,2c1.8,0,3.5,0,5.3,0
	c3.2,0,6.3,0,9.4,0c0.3,0,0.6,0.1,0.7,0.4c0,0.1,0.1,0.1,0.2,0.2c0.3,0.1,0.3,0.3,0.3,0.5c0,0.6,0,1.2,0,1.7s-0.2,0.7-0.7,0.7
	c-0.1,0-0.1,0-0.2,0c0,0.2,0,0.3,0,0.5C37.8,6,38.1,6,38.1,6.3c0,0.2-0.2,0.3-0.3,0.5c0.1,0.9,0.6,1.7,1.4,2.2
	c1.1,0.7,1.8,1.6,2.3,2.8c0.3,0.8,0.5,1.6,0.5,2.4c0,2.3,0,4.7-0.1,7c0,3.2-0.1,6.3-0.1,9.4c0,1.1-0.3,2.1-0.9,3
	c-0.8,1-1.6,1.8-2.7,2.3c-0.7,0.3-1.3,0.5-2.1,0.5c-4.1,0-8.2,0-12.2,0c-1.4,0-2.6-0.4-3.7-1.3c-0.7-0.6-1.3-1.3-1.8-2.1
	c-0.3-0.7-0.6-1.3-0.6-2.2c0-1.1,0-2.1,0-3.2c0-1.8-0.1-3.7-0.1-5.5c0-1.9,0-3.8-0.1-5.7c0-0.9-0.1-1.9,0-2.8c0.2-2,1.2-3.6,2.8-4.8
	C21.4,8.4,21.9,7.8,22.1,6.8C22.2,6.9,22.2,6.8,22.1,6.8C22.2,6.8,22.1,6.8,22.1,6.8z M40.7,19.6c-0.1,0-0.3,0-0.3,0
	c-1.1,0-2.2,0-3.3,0c-0.3,0-0.4-0.1-0.5-0.3c-0.4-0.7-1-1.3-1.8-1.7c-2.9-1.6-5.9-1.6-8.9-0.3c-1,0.4-1.8,1.1-2.4,2
	c-0.1,0.1-0.3,0.2-0.4,0.2c-0.9,0-1.8,0-2.8,0c-0.3,0-0.7,0-0.9,0c0,2.8,0,5.4,0,8.1c7.2,0,14.3,0,21.4,0
	C40.7,25.1,40.7,22.4,40.7,19.6z M40.8,19c0-0.1,0-0.2,0-0.3c0-1.5,0-3,0.1-4.5c0-1.8-0.8-3.2-2.3-4.2c-1-0.7-1.7-1.6-2-2.8
	c0-0.2-0.1-0.3-0.3-0.3c-3.3,0-6.5,0-9.9,0c-0.9,0-1.8,0-2.8,0c-0.2,0-0.3,0-0.3,0.2c-0.3,1.3-1,2.1-2.1,2.8c-1.4,1-2.2,2.3-2.2,4.1
	c0,1.5,0,3.1,0,4.6c0,0.1,0,0.2,0,0.3c1.3,0,2.4,0,3.6,0c0.1,0,0.2-0.1,0.3-0.2c0.6-0.8,1.4-1.5,2.3-1.9c2.2-1.1,4.4-1.3,6.8-0.8
	c1.9,0.3,3.6,1.2,4.8,2.8c0,0.1,0.2,0.1,0.2,0.1C38.3,19,39.5,19,40.8,19z M40.7,28.7c0-0.1,0-0.3,0-0.3c-7.1,0-14.2,0-21.3,0
	c0,0.8,0,1.8,0,2.6c0,0.6,0.1,1.1,0.4,1.5c0.3,0.5,0.7,1,1.1,1.4c0.9,0.9,1.9,1.3,3.3,1.3c4,0,8,0,12,0c0.8,0,1.5-0.3,2.2-0.7
	c0.8-0.5,1.3-1.1,1.8-1.8c0.3-0.6,0.6-1.2,0.6-1.9L40.7,28.7z M22.4,4.4c5.1,0,10.1,0,15.1,0c0-0.3,0-0.7,0-1
	c-0.3,0-0.5-0.3-0.5-0.6c-4.7,0-9.4,0-14,0c0,0.3-0.3,0.5-0.6,0.6C22.4,3.8,22.4,4.1,22.4,4.4z M23,5.8c4.7,0,9.4,0,14,0
	c0-0.2,0-0.3,0-0.4c-4.7,0-9.4,0-14,0C23,5.6,23,5.7,23,5.8z"/>
</svg>
