<?xml version="1.0" encoding="utf-8"?>
<!-- Generator: Adobe Illustrator 19.1.0, SVG Export Plug-In . SVG Version: 6.00 Build 0)  -->
<svg version="1.1" id="Layer_1" xmlns="http://www.w3.org/2000/svg" xmlns:xlink="http://www.w3.org/1999/xlink" x="0px" y="0px"
	 viewBox="0 0 60 60" style="enable-background:new 0 0 60 60;" xml:space="preserve">
<style type="text/css">
	.st0{fill:#FFFFFF;}
</style>
<g>
	<path class="st0" d="M43.9,41.8c-0.8-0.1-0.8-0.2-0.8-0.9c0-0.3,0-0.6,0-0.9c0-0.4,0.2-0.6,0.6-0.6c0.3,0,0.5,0,0.8,0
		c0.3,0,0.5,0,0.8,0c0.1-0.4,0.2-0.9,0.2-1.4c0.1-0.5,0.3-0.7,0.8-0.6c0.4,0.1,0.7,0.1,1.1,0.2c0.4,0.1,0.6,0.3,0.5,0.7
		c-0.1,0.4-0.2,0.8-0.3,1.2c-0.1,0.3-0.3,0.5-0.7,0.4c-0.5-0.1-1-0.2-1.5-0.3c0,0.4,0,0.8,0,1.1c0,0.9-0.1,1-1.1,1
		c0.4,0.3,0.7,0.5,1,0.7c0.5,0.3,0.5,0.5,0.2,1c-0.2,0.3-0.4,0.6-0.6,0.9c-0.2,0.3-0.5,0.4-0.8,0.2c-0.4-0.2-0.7-0.4-1.1-0.7
		c-0.3-0.2-0.4-0.5-0.2-0.8C43.3,42.7,43.6,42.2,43.9,41.8z"/>
	<path class="st0" d="M40.6,18.6c0.1,0.4,0.2,0.8,0.3,1.3c0.1,0.5,0,0.8-0.5,0.9c-0.5,0.1-1,0.3-1.5,0.4c-0.4,0.1-0.8-0.1-0.9-0.5
		c-0.1-0.5-0.3-1-0.4-1.5c-0.1-0.5,0.1-0.8,0.5-0.9c0.5-0.1,1-0.3,1.5-0.4c0.3,0,0.5,0.1,0.8,0.2c0-0.4,0-0.8,0-1.3
		c0-0.4,0.2-0.6,0.6-0.6c0.4,0,0.8,0,1.2,0c0.4,0,0.6,0.2,0.6,0.6c0,0.4,0,0.8,0,1.2c0,0.2-0.2,0.5-0.4,0.6
		C41.9,18.7,41.3,18.6,40.6,18.6z"/>
	<path class="st0" d="M22.9,20.7c-0.5,0.1-1,0.2-1.5,0.2c-0.4,0.1-0.7-0.1-0.8-0.6c-0.1-0.4-0.1-0.8-0.2-1.2
		c-0.1-0.4,0.1-0.7,0.6-0.7c0.4-0.1,0.8-0.1,1.2-0.2c0.4,0,0.6,0.1,0.7,0.5c0.1,0.5,0.2,1,0.2,1.5c0.5-0.2,0.9-0.3,1.3-0.5
		c0.4-0.1,0.7,0,0.8,0.4c0.1,0.4,0.3,0.8,0.4,1.1c0.1,0.4,0,0.6-0.4,0.7c-0.4,0.1-0.8,0.3-1.1,0.4c-0.4,0.1-0.7,0-0.8-0.4
		C23.2,21.6,23.1,21.1,22.9,20.7z"/>
	<path class="st0" d="M17.3,37c-0.5,0.1-1.1,0.2-1.6,0.2c-0.4,0.1-0.6-0.1-0.7-0.5c-0.1-0.4-0.1-0.9-0.2-1.3c0-0.3,0.1-0.6,0.5-0.6
		c0.4-0.1,0.9-0.1,1.3-0.2c0.4-0.1,0.6,0.1,0.7,0.6c0.1,0.5,0.1,0.9,0.2,1.4c0.5-0.2,0.9-0.3,1.4-0.5c0.4-0.1,0.6,0,0.8,0.4
		c0.1,0.4,0.3,0.8,0.4,1.2c0.1,0.4,0,0.6-0.4,0.7c-0.4,0.1-0.8,0.3-1.2,0.4c-0.4,0.1-0.6,0-0.8-0.4C17.6,38,17.5,37.5,17.3,37z"/>
	<path class="st0" d="M37.3,23.9c0.1-0.5,0.2-1,0.3-1.4c0.1-0.4,0.3-0.6,0.8-0.5c0.4,0.1,0.7,0.1,1.1,0.2c0.4,0.1,0.5,0.3,0.5,0.7
		c-0.1,0.4-0.1,0.9-0.2,1.3c-0.1,0.3-0.3,0.5-0.7,0.4c-0.5-0.1-0.9-0.2-1.5-0.3c0,0.5,0,1,0,1.5c0,0.4-0.2,0.6-0.6,0.6
		c-0.4,0-0.8,0-1.2,0c-0.4,0-0.6-0.2-0.7-0.6c0-0.4,0-0.8,0-1.2c0-0.4,0.2-0.6,0.6-0.6C36.2,23.9,36.7,23.9,37.3,23.9z"/>
	<path class="st0" d="M35.5,27.3c-0.3,0.2-0.5,0.3-0.8,0.5c-0.4,0.2-0.6,0.1-0.8-0.2c-0.1-0.2-0.2-0.4-0.3-0.6
		c-0.1,0.3,0,0.7-0.2,0.9c-0.2,0.2-0.6,0.3-0.9,0.4c-0.3,0.1-0.7,0.2-1,0.2c-0.5,0.1-0.8-0.1-0.9-0.6c-0.1-0.5-0.2-1-0.3-1.5
		c-0.1-0.4,0.1-0.7,0.6-0.8c0.5-0.1,0.9-0.2,1.4-0.3c0.6-0.1,0.8,0.1,0.9,0.7c0,0.2,0.1,0.4,0.1,0.7c0.3-0.2,0.6-0.4,1-0.6
		c0.1-0.1,0.5-0.1,0.5,0C35.1,26.4,35.3,26.9,35.5,27.3C35.5,27.3,35.5,27.3,35.5,27.3z"/>
	<path class="st0" d="M33.8,20.7c0.2,0.6,0.4,1.1,0.6,1.6c0,0.1-0.1,0.3-0.2,0.4c-0.4,0.2-0.7,0.3-1.1,0.4c0,0-0.1,0-0.1,0
		c-0.6-0.2-0.5-0.9-0.7-1.3c-0.1-0.3,0.1-0.5,0.4-0.6c0.1,0,0.3-0.1,0.5-0.2c-0.5-0.3-0.8-0.5-1.2-0.8c-0.5-0.3-0.5-0.5-0.2-1
		c0.2-0.3,0.4-0.7,0.6-1c0.2-0.3,0.5-0.4,0.8-0.2c0.4,0.2,0.7,0.5,1.1,0.7c0.4,0.2,0.4,0.5,0.2,0.9C34.2,20.1,34,20.5,33.8,20.7z"/>
	<path class="st0" d="M41.1,36.4c-0.5-0.3-0.9-0.6-1.3-0.8c-0.3-0.2-0.4-0.5-0.2-0.8c0.2-0.4,0.5-0.8,0.7-1.1
		c0.2-0.3,0.5-0.4,0.8-0.2c0.4,0.2,0.8,0.5,1.1,0.7c0.3,0.2,0.4,0.5,0.2,0.9c-0.3,0.4-0.5,0.8-0.8,1.2c0.5,0.4,0.6,1,0.7,1.5
		c0,0.1-0.1,0.3-0.2,0.3c-0.4,0.2-0.8,0.4-1.2,0.4c-0.7,0-0.5-0.8-0.7-1.2c-0.2-0.3,0-0.5,0.3-0.6C40.7,36.6,40.9,36.5,41.1,36.4z"
		/>
	<path class="st0" d="M49.6,35.3c-0.2,0.2-0.3,0.4-0.6,0.5c-0.5,0.2-1,0.3-1.5,0.4c-0.5,0.1-0.7-0.1-0.9-0.5c-0.1-0.5-0.2-1-0.4-1.5
		c-0.1-0.4,0.1-0.7,0.5-0.9c0.5-0.1,1-0.3,1.6-0.4c0.4-0.1,0.6,0,0.8,0.4C49.3,33.9,49.4,34.5,49.6,35.3z"/>
	<path class="st0" d="M27.8,24.6c0,0.4-0.1,0.8-0.1,1.2c-0.1,0.5-0.3,0.7-0.8,0.7c-0.5,0-1-0.1-1.5-0.1c-0.5-0.1-0.7-0.3-0.7-0.8
		c0-0.5,0.1-1,0.2-1.5c0.1-0.5,0.3-0.7,0.8-0.6c0.4,0,0.8,0.1,1.2,0.1C27.7,23.6,27.9,23.7,27.8,24.6z"/>
	<path class="st0" d="M22.2,41c0,0.3-0.1,0.8-0.1,1.2c-0.1,0.5-0.3,0.7-0.8,0.7c-0.5,0-1-0.1-1.5-0.2c-0.5-0.1-0.7-0.3-0.6-0.8
		c0-0.5,0.1-1,0.2-1.5c0-0.4,0.3-0.6,0.7-0.6c0.4,0,0.9,0.1,1.3,0.1C22,39.9,22.2,40.1,22.2,41z"/>
	<path class="st0" d="M15.5,18.6c0.1-1.6,0.1-1.6,1.7-1.5c1.4,0.1,1.4,0.1,1.3,1.5c-0.1,1.6-0.1,1.6-1.7,1.5
		C15.5,20,15.5,20,15.5,18.6z"/>
	<path class="st0" d="M11.8,36.4c-0.4,0-0.8-0.1-1.1-0.1c-0.5,0-0.7-0.3-0.7-0.7c0-0.5,0.1-1.1,0.1-1.6c0-0.4,0.2-0.6,0.6-0.6
		c0.6,0,1.2,0,1.8,0.1c0.2,0,0.5,0.4,0.5,0.6c0,0.6,0,1.2-0.1,1.8c0,0.2-0.3,0.4-0.6,0.5C12.2,36.5,11.9,36.4,11.8,36.4z"/>
	<path class="st0" d="M42.5,45.5c-0.2,0.1-0.3,0.4-0.6,0.5c-0.5,0.2-1.1,0.3-1.6,0.3c-0.4,0.1-0.7-0.1-0.8-0.5
		c-0.1-0.5-0.2-1.1-0.3-1.6c-0.1-0.4,0.1-0.6,0.5-0.7c0.5-0.1,1.1-0.2,1.6-0.3c0.4-0.1,0.6,0.1,0.7,0.4
		C42.3,44.2,42.4,44.8,42.5,45.5z"/>
	<path class="st0" d="M30.1,18.9c0.2,0.6,0,1.3-0.3,1.2c-0.3,0-0.8,0.1-0.9-0.4c-0.1-0.6,0.1-0.9,0.6-0.9c0-0.7-0.1-1.4,0-2
		c0-0.2,0.3-0.4,0.6-0.4c0.4-0.1,0.8,0,1.2,0c0.4,0,0.6,0.2,0.6,0.6c0,0.4,0,0.9,0,1.3c0,0.4-0.2,0.6-0.6,0.6
		C30.9,18.9,30.5,18.9,30.1,18.9z"/>
	<path class="st0" d="M27.4,48.5C27.4,48.6,27.4,48.6,27.4,48.5c-0.7-1,0.2-1.6,0.6-2.4C28,46,28.5,46,28.7,46
		c0.4,0.2,0.9,0.4,1.3,0.7c0.3,0.2,0.4,0.5,0.2,0.8c-0.2,0.4-0.5,0.8-0.7,1.3c-0.2,0.4-0.5,0.4-0.9,0.2c-0.3-0.1-0.5-0.3-0.8-0.4
		C27.7,48.5,27.5,48.5,27.4,48.5z"/>
	<path class="st0" d="M42,15.5c-0.5,0-1.7-1.5-1.5-1.9c0.1-0.2,0.4-0.4,0.6-0.6c1.2-1,1.2-1,2.2,0.3c0.1,0.2,0.3,0.3,0.4,0.5
		c0.1,0.2,0.1,0.5,0,0.6c-0.4,0.4-0.9,0.8-1.4,1.1C42.1,15.5,42.1,15.5,42,15.5z"/>
	<path class="st0" d="M50.1,27.6c0.4,0,1.6,1.5,1.5,1.9c0,0.1-0.1,0.2-0.2,0.3c-0.4,0.3-0.8,0.7-1.2,1c-0.3,0.2-0.6,0.2-0.8-0.1
		c-0.3-0.4-0.7-0.8-0.9-1.2c-0.1-0.2-0.1-0.5,0-0.7c0.4-0.4,0.9-0.8,1.4-1.2C50,27.6,50.1,27.6,50.1,27.6z"/>
	<path class="st0" d="M30.9,29.7c-0.4,0.6-0.7,1.2-1.1,1.8c-0.1,0.1-0.4,0.1-0.6,0c-0.4-0.2-0.8-0.5-1.3-0.7
		c-0.3-0.2-0.4-0.5-0.2-0.8c0.2-0.4,0.5-0.9,0.7-1.3c0.2-0.3,0.5-0.4,0.8-0.2c0.4,0.2,0.9,0.5,1.3,0.7
		C30.6,29.2,30.7,29.5,30.9,29.7z"/>
	<path class="st0" d="M21.6,26.4c-0.1,0.1-0.1,0.3-0.2,0.4c-0.3,0.3-0.7,0.6-1.1,0.9c-0.3,0.2-0.6,0.2-0.8-0.1
		c-0.3-0.3-0.6-0.7-0.9-1c-0.2-0.3-0.2-0.6,0.1-0.8c0.3-0.3,0.7-0.6,1-0.9c0.2-0.1,0.6-0.1,0.7,0c0.4,0.4,0.7,0.8,1.1,1.2
		C21.6,26.2,21.6,26.3,21.6,26.4z"/>
	<path class="st0" d="M34.3,5.8c0.5-0.2,0.9-0.3,1.2-0.5C36.3,4.9,36.9,5.2,37,6c0,0.2,0.1,0.3,0.1,0.5c0.2,0.6,0.1,0.8-0.4,1
		c-0.3,0.1-0.7,0.3-1.1,0.4c-0.2,0-0.6,0-0.6-0.1C34.7,7.2,34.2,6.5,34.3,5.8z"/>
	<path class="st0" d="M13,43c-0.1,0.1-0.1,0.2-0.2,0.3c-0.4,0.3-0.7,0.7-1.1,1c-0.3,0.2-0.6,0.2-0.8-0.1c-0.3-0.3-0.6-0.7-0.9-1.1
		c-0.2-0.3-0.2-0.6,0.1-0.8c0.3-0.3,0.7-0.6,1.1-0.9c0.2-0.1,0.5-0.2,0.6-0.1c0.4,0.4,0.8,0.9,1.2,1.3C13,42.8,13,42.9,13,43z"/>
	<path class="st0" d="M13.5,27.1c0.3,0.2,0.5,0.4,0.7,0.7c0.2,0.3,0.3,0.6,0.5,0.9c0.2,0.4,0.1,0.7-0.2,0.9
		c-0.4,0.2-0.7,0.4-1.1,0.6c-0.3,0.2-0.6,0.1-0.8-0.2c-0.2-0.4-0.5-0.8-0.7-1.2c-0.1-0.1-0.1-0.4,0-0.5
		C12.4,27.9,12.9,27.6,13.5,27.1z"/>
	<path class="st0" d="M34.5,38.4c-0.2-0.1-0.4-0.2-0.5-0.2c-1.3-0.1-1.3-0.1-1.2-1.5c0-0.2,0-0.4,0.1-0.6c0-0.3,0.3-0.5,0.6-0.5
		c0.5,0,0.9,0.1,1.4,0.2c0.4,0.1,0.5,0.3,0.5,0.7c0,0.4,0,0.7-0.1,1.1c0,0.3-0.1,0.6-0.5,0.7C34.6,38.2,34.5,38.4,34.5,38.4z"/>
	<path class="st0" d="M36.6,52.2c0-0.3,0.1-0.7,0.1-1.1c0-0.4,0.3-0.6,0.6-0.5c0.4,0,0.9,0.1,1.3,0.1c0.4,0,0.6,0.3,0.5,0.7
		c0,0.4-0.1,0.8-0.1,1.2c0,0.4-0.3,0.7-0.7,0.6c-0.3,0-0.7-0.1-1-0.1C36.7,53,36.6,52.8,36.6,52.2z"/>
	<path class="st0" d="M27.5,52.4c-0.6-0.2-1.2-0.3-1.6-0.5c-0.2-0.1-0.3-0.4-0.3-0.6c0-0.4,0.2-0.8,0.3-1.3c0.1-0.4,0.4-0.5,0.8-0.4
		c0.4,0.1,0.8,0.2,1.2,0.3c0.4,0.1,0.6,0.3,0.5,0.7c-0.1,0.4-0.2,0.9-0.3,1.3C27.8,52,27.6,52.2,27.5,52.4z"/>
	<path class="st0" d="M27,15.5c-0.1,0.1-0.3,0.4-0.5,0.4c-0.4,0.2-0.9,0.3-1.3,0.4c-0.4,0.1-0.6-0.1-0.7-0.5
		c-0.1-0.4-0.2-0.8-0.3-1.3c-0.1-0.4,0-0.6,0.4-0.7c0.4-0.1,0.8-0.3,1.3-0.3c0.2,0,0.6,0.1,0.6,0.3C26.8,14.3,26.9,14.8,27,15.5z"/>
	<path class="st0" d="M24.3,26.2c0,0,0,0.2,0,0.4c0.1,0.4-0.1,0.6-0.5,0.7c-0.4,0-0.9,0.1-1.3,0.1c-0.3,0-0.6-0.1-0.6-0.5
		c-0.1-0.5-0.1-0.9-0.1-1.4c0-0.3,0.2-0.6,0.5-0.6c0.4,0,0.8-0.1,1.2-0.1c0.5-0.1,0.7,0.1,0.8,0.6C24.3,25.6,24.3,25.8,24.3,26.2z"
		/>
	<path class="st0" d="M25.2,43.6C25,43.7,24.9,44,24.7,44c-0.4,0.1-0.9,0.2-1.4,0.2c-0.3,0-0.6-0.2-0.6-0.5
		c-0.1-0.4-0.1-0.9-0.2-1.3c0-0.4,0.1-0.6,0.5-0.7c0.4-0.1,0.9-0.1,1.3-0.2c0.3,0,0.6,0.1,0.6,0.5C25,42.5,25.1,43,25.2,43.6z"/>
	<path class="st0" d="M33.2,49.8c0.2-0.6,0.5-1.1,0.7-1.7C34,48,34.4,48,34.5,48c0.3,0.1,0.6,0.2,1,0.4c0.7,0.3,0.8,0.5,0.5,1.1
		c0,0-0.1,0.1-0.1,0.1c-0.2,0.4-0.5,0.8-0.7,1.2c-0.6-0.2-1.2-0.4-1.7-0.6C33.4,50.1,33.3,49.9,33.2,49.8z"/>
	<path class="st0" d="M25.4,37.5c-0.2,0.6-0.2,1.1-0.4,1.6c-0.1,0.2-0.4,0.3-0.7,0.3c-0.4,0-0.8-0.2-1.3-0.3
		c-0.4-0.1-0.5-0.4-0.4-0.7c0.1-0.4,0.2-0.8,0.3-1.3c0.1-0.4,0.3-0.5,0.7-0.4c0.4,0.1,0.9,0.2,1.3,0.3
		C25.1,37.1,25.2,37.4,25.4,37.5z"/>
	<path class="st0" d="M24.9,7.7c0.2-0.2,0.3-0.4,0.5-0.5C25.6,7,26,6.8,26.4,6.6c0.3-0.2,0.6-0.1,0.8,0.2c0.2,0.4,0.4,0.7,0.6,1.1
		c0.2,0.3,0.1,0.6-0.2,0.8c-0.4,0.2-0.7,0.5-1.1,0.6c-0.2,0.1-0.5,0.1-0.6,0C25.5,8.9,25.2,8.3,24.9,7.7z"/>
	<path class="st0" d="M27.6,13.2c-0.9,0.1-1,0-1.1-0.9c-0.1-1.5-0.1-1.5,1.3-1.6c0.9-0.1,1,0,1.1,0.9C29.1,13,29.1,13,27.6,13.2z"/>
	<path class="st0" d="M34.1,31.1c0.6,0.2,1.1,0.4,1.6,0.7c0.1,0.1,0.2,0.4,0.2,0.6c-0.1,0.5-0.3,0.9-0.5,1.4
		c-0.1,0.3-0.4,0.4-0.7,0.3c-0.4-0.2-0.8-0.3-1.2-0.5c-0.3-0.1-0.5-0.4-0.3-0.7c0.2-0.4,0.3-0.9,0.5-1.2
		C33.7,31.4,34,31.3,34.1,31.1z"/>
	<path class="st0" d="M45.2,22.3c-0.2,0.2-0.3,0.4-0.5,0.5c-0.4,0.2-0.8,0.3-1.1,0.5c-0.3,0.1-0.6,0-0.8-0.3
		c-0.2-0.4-0.3-0.8-0.5-1.2c-0.1-0.3,0-0.6,0.3-0.7c0.4-0.2,0.8-0.4,1.2-0.5c0.2-0.1,0.5,0,0.6,0.1C44.7,21.2,45,21.7,45.2,22.3z"/>
	<path class="st0" d="M42,46.5c0.6,0.3,1.2,0.5,1.7,0.8c0.1,0.1,0.2,0.4,0.1,0.6c-0.1,0.4-0.3,0.9-0.5,1.3c-0.1,0.3-0.4,0.4-0.7,0.3
		c-0.4-0.2-0.8-0.3-1.2-0.5c-0.3-0.1-0.4-0.4-0.3-0.7c0.2-0.4,0.3-0.8,0.5-1.2C41.6,46.8,41.9,46.6,42,46.5z"/>
	<path class="st0" d="M39,42.4c-1.2,0-1.2,0-1.3-1.1c0-1.3,0-1.3,1.2-1.3c1.2-0.1,1.2,0,1.3,1.2C40.3,42.3,40.3,42.3,39,42.4z"/>
	<path class="st0" d="M28.8,54.6c0.7,0,0.6,0.5,0.8,1.8c0.1,0.5-0.4,0.7-1.8,0.8c-0.6,0-0.9-0.6-0.9-1.9
		C27,54.8,27.5,54.6,28.8,54.6z"/>
	<path class="st0" d="M35.5,41.1c0.6,0.3,1.1,0.5,1.7,0.7c0.1,0.1,0.2,0.4,0.1,0.6c-0.1,0.4-0.3,0.8-0.5,1.3
		c-0.1,0.3-0.4,0.4-0.7,0.3c-0.4-0.2-0.9-0.3-1.3-0.5c-0.2-0.1-0.3-0.4-0.3-0.6c0.1-0.5,0.3-0.9,0.5-1.4
		C35.1,41.3,35.3,41.2,35.5,41.1z"/>
	<path class="st0" d="M13.6,25.2c-0.2,0.1-0.3,0.4-0.5,0.4c-0.4,0.2-0.8,0.2-1.3,0.3c-0.4,0.1-0.6-0.1-0.7-0.4
		c-0.1-0.4-0.2-0.8-0.3-1.3c-0.1-0.4,0.1-0.6,0.5-0.7c0.4-0.1,0.8-0.2,1.2-0.3c0.2,0,0.6,0.1,0.6,0.2C13.3,24.1,13.4,24.6,13.6,25.2
		z"/>
	<path class="st0" d="M20.5,12.6c-0.2,0.7-0.9,0.8-1.3,1.1c-0.2,0.1-0.7,0.2-0.7,0.1c-0.4-0.5-0.7-1.1-1-1.6c0-0.1,0.1-0.4,0.3-0.5
		c0.4-0.3,0.8-0.5,1.2-0.7c0.1-0.1,0.5-0.1,0.5,0C19.8,11.6,20.1,12.1,20.5,12.6z"/>
	<path class="st0" d="M44.6,32.7c0.2,0,0.3,0,0.5,0c0.4,0,0.7,0.2,0.7,0.6c0,0.4,0.1,0.8,0.1,1.2c0,0.4-0.2,0.6-0.6,0.7
		c-0.4,0-0.9,0-1.3,0c-0.3,0-0.5-0.2-0.6-0.5c0-0.4,0-0.8-0.1-1.1c0-0.6,0.1-0.8,0.7-0.8C44.2,32.7,44.4,32.7,44.6,32.7
		C44.6,32.7,44.6,32.7,44.6,32.7z"/>
	<path class="st0" d="M13.1,20.3c-0.2-0.1-0.4-0.1-0.4-0.2c-0.3-0.5-0.6-1-0.9-1.6c-0.1-0.1,0.1-0.4,0.3-0.5
		c0.4-0.3,0.8-0.5,1.2-0.7c0.3-0.2,0.6-0.1,0.8,0.2c0.2,0.4,0.5,0.7,0.6,1.1c0.1,0.2,0.1,0.5,0,0.6C14.1,19.7,13.6,20,13.1,20.3z"/>
	<path class="st0" d="M49.6,15.4c-0.1,0.6-0.1,1-0.2,1.5c-0.1,0.4-0.4,0.6-0.9,0.5c-0.3-0.1-0.7-0.2-1.1-0.2
		c-0.4-0.1-0.6-0.4-0.5-0.8c0-0.4,0.2-0.8,0.3-1.2c0.1-0.3,0.3-0.5,0.6-0.4c0.4,0.1,0.9,0.1,1.3,0.3C49.3,15,49.5,15.3,49.6,15.4z"
		/>
	<path class="st0" d="M35.5,27.3C35.5,27.3,35.5,27.3,35.5,27.3c0.6-0.8,0.6-0.8,1.5-0.3c1.3,0.8,1.2,0.7,0.4,1.9
		c-0.5,0.8-0.6,0.8-1.4,0.3C34.8,28.6,34.8,28.6,35.5,27.3z"/>
	<path class="st0" d="M45.5,30c-1.4-0.1-1.8-0.3-1.7-0.8c0.2-1.4,0.1-1.8,0.8-1.7c1.3,0,1.8,0.3,1.8,0.8C46.3,29.6,46.1,30,45.5,30z
		"/>
	<path class="st0" d="M28.8,44.7c-0.2-0.1-0.4-0.3-0.5-0.5c-0.2-0.4-0.3-0.8-0.4-1.2c-0.1-0.3,0-0.6,0.3-0.7
		c0.4-0.1,0.8-0.3,1.2-0.4c0.4-0.1,0.6,0,0.7,0.4c0.1,0.4,0.3,0.8,0.4,1.2c0,0.2,0,0.6-0.2,0.6C30,44.3,29.4,44.5,28.8,44.7z"/>
	<path class="st0" d="M26.4,38.2c0-0.2-0.2-0.5-0.1-0.7c0.2-0.5,0.6-0.9,0.9-1.4c0.1-0.1,0.4-0.1,0.6,0c0.4,0.2,0.7,0.4,1.1,0.6
		c0.3,0.2,0.4,0.5,0.2,0.8c-0.2,0.4-0.4,0.7-0.7,1.1c-0.2,0.3-0.5,0.4-0.8,0.2c-0.2-0.2-0.5-0.3-0.7-0.5
		C26.8,38.3,26.6,38.2,26.4,38.2z"/>
	<path class="st0" d="M17.4,33.1c-0.1,0.1-0.1,0.3-0.2,0.4c-0.3,0.3-0.7,0.6-1,0.9c-0.3,0.2-0.5,0.2-0.7-0.1c-0.3-0.3-0.6-0.7-0.9-1
		c-0.2-0.3-0.2-0.6,0.1-0.8c0.3-0.3,0.6-0.6,1-0.8c0.2-0.1,0.5-0.2,0.6-0.1c0.4,0.4,0.8,0.8,1.1,1.3C17.3,32.9,17.3,32.9,17.4,33.1z
		"/>
	<path class="st0" d="M36.3,37.6c0.4-0.5,0.6-1.2,1.1-1.5c0.5-0.4,0.9,0.3,1.3,0.5c0.2,0.1,0.6,0.5,0.5,0.6c-0.3,0.6-0.6,1.1-1,1.6
		c-0.1,0.1-0.3,0.1-0.5,0c-0.4-0.2-0.8-0.5-1.2-0.7C36.4,38,36.4,37.8,36.3,37.6z"/>
	<path class="st0" d="M31.5,22.9c-0.3,1.4-0.2,1.8-0.9,1.7c-1.4-0.1-1.8-0.3-1.7-0.9c0.2-1.4,0.2-1.8,0.9-1.7
		C31.2,22.3,31.6,22.2,31.5,22.9z"/>
	<path class="st0" d="M52.5,42.8c1.5,0.1,1.8,0.2,1.7,0.9c-0.1,1.4-0.3,1.7-0.8,1.7c-1.5-0.1-1.8-0.2-1.8-0.8
		C51.9,43.1,51.8,42.8,52.5,42.8z"/>
	<path class="st0" d="M23.8,32.6c-0.1-0.1-0.4-0.2-0.4-0.4c-0.2-0.4-0.3-0.8-0.4-1.3c0-0.2,0.2-0.6,0.3-0.6c0.4-0.2,0.9-0.3,1.3-0.4
		c0.2,0,0.5,0.2,0.6,0.3c0.2,0.4,0.3,0.9,0.4,1.4c0,0.2-0.1,0.5-0.3,0.5C24.9,32.3,24.4,32.4,23.8,32.6z"/>
	<path class="st0" d="M32.7,32.9c-0.1,0.1-0.3,0.3-0.5,0.4c-0.4,0.1-0.9,0.3-1.3,0.3c-0.2,0-0.5-0.2-0.6-0.4
		c-0.2-0.4-0.2-0.9-0.3-1.3c-0.1-0.3,0.1-0.6,0.4-0.6c0.3-0.1,0.6-0.1,0.9-0.2c0.9-0.2,1-0.1,1.2,0.8C32.5,32.2,32.6,32.5,32.7,32.9
		z"/>
	<path class="st0" d="M15.7,25.1c-0.1,0-0.2-0.1-0.3-0.1c-0.3-0.4-0.7-0.8-1-1.2c-0.1-0.1,0-0.5,0.1-0.6c0.3-0.3,0.7-0.6,1-0.9
		c0.3-0.2,0.5-0.2,0.8,0.1c0.3,0.3,0.6,0.6,0.8,1c0.1,0.2,0.2,0.5,0.1,0.6c-0.4,0.4-0.8,0.7-1.2,1.1C15.9,25.1,15.8,25.1,15.7,25.1z
		"/>
	<path class="st0" d="M52.4,22c-0.1,0.1-0.3,0.4-0.5,0.4c-0.4,0.1-0.9,0.2-1.3,0.3c-0.3,0.1-0.6-0.1-0.6-0.4
		c-0.1-0.4-0.2-0.8-0.3-1.2c-0.1-0.4,0.1-0.6,0.5-0.7c0.4-0.1,0.8-0.2,1.2-0.2c0.2,0,0.6,0.2,0.6,0.4C52.2,20.9,52.3,21.4,52.4,22z"
		/>
	<path class="st0" d="M45.5,52.8c-0.4,0.5-0.6,1.2-1.1,1.5c-0.5,0.4-1-0.3-1.4-0.6c-0.2-0.1-0.5-0.5-0.4-0.6
		c0.3-0.6,0.6-1.1,0.9-1.6c0.1-0.1,0.3-0.1,0.4,0c0.5,0.2,0.9,0.5,1.3,0.8C45.4,52.4,45.4,52.6,45.5,52.8z"/>
	<path class="st0" d="M31.3,15.4c-0.1,0.1-0.3,0.4-0.4,0.4c-0.4,0.2-0.8,0.3-1.2,0.4c-0.4,0.1-0.6,0-0.7-0.4
		c-0.1-0.4-0.2-0.8-0.3-1.1c-0.1-0.4,0-0.7,0.4-0.8c0.4-0.1,0.7-0.2,1.1-0.3c0.4-0.1,0.7,0,0.8,0.4C31,14.4,31.2,14.8,31.3,15.4z"/>
	<path class="st0" d="M23,46.9c0.1-1.4,0.1-1.4,1.3-1.3c0.2,0,0.4,0,0.6,0.1c0.3,0,0.5,0.2,0.5,0.6c0,0.4,0,0.8-0.1,1.2
		c0,0.4-0.3,0.6-0.7,0.6c-0.3,0-0.6,0-0.9-0.1c-0.7,0-0.8-0.2-0.8-0.9C23,47,23,46.9,23,46.9z"/>
	<path class="st0" d="M22.4,16.9c-0.1,0.1-0.1,0.3-0.2,0.4c-0.3,0.3-0.7,0.6-1,0.9c-0.3,0.2-0.5,0.2-0.7-0.1c-0.3-0.3-0.6-0.7-0.9-1
		c-0.2-0.3-0.2-0.5,0.1-0.8c0.3-0.3,0.6-0.6,1-0.8c0.2-0.1,0.5-0.2,0.6,0c0.4,0.4,0.7,0.8,1.1,1.2C22.4,16.6,22.4,16.7,22.4,16.9z"
		/>
	<path class="st0" d="M30.6,8.6c0.1,0,0.3,0.1,0.4,0.2c0.3,0.3,0.6,0.7,0.9,1.1c0.1,0.2,0.1,0.5-0.1,0.7c-0.3,0.3-0.7,0.7-1.1,0.9
		c-0.2,0.1-0.5,0.1-0.7,0c-0.4-0.3-0.7-0.7-0.9-1.1c-0.1-0.1-0.1-0.5,0-0.6c0.4-0.4,0.8-0.7,1.2-1.1C30.4,8.6,30.5,8.7,30.6,8.6z"/>
	<path class="st0" d="M32.6,44.2c-0.4-0.3-1-0.6-1.4-1c-0.3-0.3,0.8-2,1.2-1.9c0.6,0.2,1.1,0.6,1.6,1c0,0,0,0,0,0
		C34.2,42.7,33.2,44.1,32.6,44.2z"/>
	<path class="st0" d="M31.3,38.7c-1.3-0.1-1.3-0.1-1.2-1.3c0-0.2,0-0.4,0-0.6c0-0.4,0.2-0.6,0.7-0.6c0.4,0,0.8,0,1.2,0.1
		c0.4,0,0.6,0.2,0.6,0.6c0,0.3,0,0.7,0,1c0,0.7-0.2,0.8-0.8,0.8C31.5,38.7,31.4,38.7,31.3,38.7z"/>
	<path class="st0" d="M32.8,50.3c-0.1,0.1-0.3,0.4-0.4,0.5c-0.4,0.2-0.8,0.3-1.2,0.4c-0.3,0.1-0.6,0-0.7-0.3
		c-0.1-0.4-0.3-0.8-0.4-1.2c-0.1-0.3,0-0.6,0.4-0.7c0.4-0.1,0.8-0.3,1.2-0.4c0.2,0,0.5,0.1,0.6,0.2C32.5,49.1,32.6,49.7,32.8,50.3z"
		/>
	<path class="st0" d="M14.7,39.1c0,1-0.3,1.4-0.7,1.4c-1,0-1.4-0.2-1.3-0.7c0.1-1,0.3-1.5,1-1.4C14.2,38.4,14.7,38.7,14.7,39.1z"/>
	<path class="st0" d="M19.6,24.1c-0.8,0-1.4-0.2-1.4-0.6c0-0.8,0.3-1.4,0.6-1.4c0.8,0,1.4,0.2,1.4,0.6C20.3,23.6,20,24.1,19.6,24.1z
		"/>
	<path class="st0" d="M24.3,16.4c-0.3,0.1-0.7,0.3-1,0.4c-0.1,0-0.2,0.1-0.2,0.1c-0.7-0.1-0.6-0.8-0.8-1.2c-0.1-0.1,0.2-0.4,0.3-0.6
		c0,0,0.1,0,0.1,0c0.4-0.1,0.8-0.3,1.1-0.2C24,14.8,24.3,16,24.3,16.4z"/>
	<path class="st0" d="M33.5,44.7c0.3,0,0.8,0.9,0.8,1.3c0,0.3-0.9,0.8-1.3,0.8c-0.3,0-0.8-0.9-0.8-1.3
		C32.2,45.3,33.1,44.7,33.5,44.7z"/>
	<path class="st0" d="M29.7,38.7c0.3,0,0.8,0.8,0.8,1.3c0,0.3-0.9,0.8-1.3,0.8c-0.3,0-0.8-0.9-0.8-1.3
		C28.3,39.3,29.2,38.8,29.7,38.7z"/>
	<path class="st0" d="M38.9,11.2c-0.7,0-1.4-0.3-1.3-0.7c0-0.7,0.3-1.4,0.7-1.3c0.7,0,1.4,0.3,1.3,0.7
		C39.6,10.5,39.3,11.2,38.9,11.2z"/>
	<path class="st0" d="M8,19c0,0.3-0.9,0.8-1.3,0.8c-0.3,0-0.8-0.9-0.8-1.3c0-0.3,0.9-0.8,1.3-0.8C7.5,17.7,8,18.6,8,19z"/>
	<path class="st0" d="M40.1,48c0,0.2-1,0.8-1.3,0.8c-0.3,0-0.8-1-0.8-1.4c0-0.3,0.9-0.8,1.3-0.8C39.5,46.6,40.1,47.6,40.1,48z"/>
	<path class="st0" d="M37,33.9c-0.3,0-0.8-0.9-0.8-1.3c0-0.3,0.9-0.8,1.3-0.8c0.3,0,0.8,0.9,0.8,1.3C38.3,33.3,37.4,33.9,37,33.9z"
		/>
	<path class="st0" d="M37,19.6c0,0.3-1,0.8-1.4,0.8c-0.3,0-0.8-1-0.8-1.4c0-0.2,1-0.8,1.4-0.8C36.5,18.2,37,19.2,37,19.6z"/>
	<path class="st0" d="M24.3,19.3c-0.3,0-0.8-0.8-0.8-1.3c0-0.3,0.8-0.8,1.3-0.8c0.3,0,0.8,0.8,0.8,1.3
		C25.7,18.8,24.8,19.3,24.3,19.3z"/>
	<path class="st0" d="M47.5,25.2c0,0.7-0.3,1.3-0.7,1.3c-0.7,0-1.3-0.3-1.3-0.7c0-0.7,0.3-1.4,0.7-1.3
		C46.9,24.5,47.5,24.8,47.5,25.2z"/>
	<path class="st0" d="M19.5,32.2c0,0.3-0.9,0.8-1.3,0.8c-0.3,0-0.8-0.9-0.8-1.4c0-0.3,0.9-0.8,1.3-0.8C19,30.8,19.5,31.7,19.5,32.2z
		"/>
	<path class="st0" d="M34.1,30.7c-0.3,0-0.8-0.8-0.8-1.3c0-0.3,0.8-0.8,1.3-0.8c0.3,0,0.8,0.8,0.8,1.3
		C35.4,30.2,34.6,30.7,34.1,30.7z"/>
	<path class="st0" d="M9.3,31.2c-0.3,0-0.8-0.9-0.8-1.3c0-0.3,0.9-0.8,1.4-0.8c0.3,0,0.8,0.9,0.8,1.3C10.6,30.6,9.7,31.2,9.3,31.2z"
		/>
	<path class="st0" d="M25.9,35.2c-0.3,0-0.8-0.9-0.8-1.3c0-0.3,0.9-0.8,1.3-0.8c0.3,0,0.8,0.9,0.8,1.3
		C27.3,34.7,26.4,35.2,25.9,35.2z"/>
	<path class="st0" d="M16.4,29.1c-0.7,0-1.2-0.3-1.3-0.6c0-0.8,0.2-1.3,0.7-1.3c0.6,0,1.2,0.3,1.2,0.7
		C17.1,28.4,16.7,29.1,16.4,29.1z"/>
	<path class="st0" d="M36.8,16.3c0,0.4-0.1,0.7-0.1,1c0,0.5-0.2,0.6-0.7,0.6c-1-0.1-1.4-0.6-0.9-1.5c0.1-0.2,0.5-0.3,0.8-0.3
		C36.1,16.1,36.4,16.3,36.8,16.3z"/>
	<path class="st0" d="M17,6.6c-0.5-0.5-1.2-0.8-1.1-1.1c0-0.4,0.6-0.8,0.9-1.2c0.4,0.3,1,0.6,1,1C17.9,5.7,17.4,6.1,17,6.6z"/>
	<path class="st0" d="M34.8,39.9c-0.5,0.4-0.9,1-1.3,1c-0.4,0-0.7-0.6-1.1-1c0.3-0.4,0.7-1,1.1-1C33.9,38.9,34.3,39.5,34.8,39.9z"/>
	<path class="st0" d="M45.9,50.2c0-0.3,0.8-0.8,1.3-0.8c0.2,0,0.7,0.8,0.7,1.3c0,0.3-0.7,0.7-1.2,0.8C46.4,51.5,45.9,50.7,45.9,50.2
		z"/>
	<path class="st0" d="M50.6,41.2c0,0.4-0.5,1.2-0.8,1.2c-0.4,0-1.2-0.5-1.2-0.8c0-0.4,0.5-1.2,0.8-1.2
		C49.7,40.4,50.6,40.9,50.6,41.2z"/>
	<path class="st0" d="M20.5,48c-0.1,0.3-1,1.2-1.2,1.1c-0.4-0.3-1-0.7-0.9-1.1c0-0.3,0.7-0.9,1-0.9C19.8,47.1,20.1,47.7,20.5,48z"/>
	<path class="st0" d="M52.2,32.5c0,0.8-0.3,1.2-0.6,1.2c-0.8,0-1.3-0.3-1.2-0.7c0.2-0.9,0.2-1.2,0.6-1.2
		C51.8,31.9,52.2,32.1,52.2,32.5z"/>
	<path class="st0" d="M22,9.7c0-0.7,0.3-1.2,0.6-1.2c0.7,0,1.3,0.3,1.2,0.6c0,0.8-0.3,1.3-0.6,1.2C22.5,10.3,22,10.1,22,9.7z"/>
	<path class="st0" d="M35.2,11.7c0.4,0.3,1,0.6,1,1c0,0.4-0.5,0.8-0.8,1.2c-0.4-0.3-0.9-0.5-1.2-0.9C34.1,12.8,34.8,11.8,35.2,11.7z
		"/>
	<path class="st0" d="M38.9,13.4c0,0.8-0.3,1.2-0.7,1.2c-0.8,0-1.3-0.3-1.2-0.7c0.2-0.9,0.2-1.2,0.6-1.2
		C38.5,12.7,38.9,13,38.9,13.4z"/>
	<path class="st0" d="M43.9,28.2c-0.3,0.4-0.6,0.8-1,1.1c-0.2,0.1-1.2-0.6-1.2-0.9c0-0.3,0.7-1.2,0.9-1.2
		C42.9,27.3,43.8,27.9,43.9,28.2z"/>
	<path class="st0" d="M27,16.8c0.3,0.1,1.1,1.1,1,1.3c-0.3,0.4-0.7,0.7-1.2,0.9c-0.2,0.1-1-0.9-0.9-1.1C26.2,17.4,26.6,17.1,27,16.8
		z"/>
	<path class="st0" d="M16.6,45c-0.3,0-0.7-0.7-0.7-1.3c0-0.3,0.7-0.7,1.3-0.7c0.3,0,0.7,0.7,0.7,1.3C17.8,44.6,17.1,45,16.6,45z"/>
	<path class="st0" d="M21.9,33.1c-0.4-0.6-0.9-1-0.8-1.4c0.1-0.4,0.7-0.6,1.1-1c0.3,0.4,0.9,0.8,0.9,1.1
		C23,32.3,22.4,32.6,21.9,33.1z"/>
	<path class="st0" d="M17,24.8c0.7,0,1.2,0.3,1.2,0.6c0,0.7-0.2,1.2-0.6,1.3c-0.7,0-1.3-0.3-1.3-0.6C16.4,25.3,16.7,24.8,17,24.8z"
		/>
	<path class="st0" d="M22,29.7c-0.3,0-0.7-0.6-0.7-1.2c0-0.3,0.6-0.7,1.2-0.7c0.3,0,0.7,0.6,0.7,1.2C23.2,29.3,22.6,29.7,22,29.7z"
		/>
	<path class="st0" d="M12.5,21.6c-0.5,0.5-0.8,1.1-1.2,1.1c-0.4,0-1-0.6-1-0.9c0-0.3,0.5-1,0.9-1.1C11.6,20.7,12,21.2,12.5,21.6z"/>
	<path class="st0" d="M20.9,34.2c-0.1,0.1-0.2,0.2-0.4,0.3c-1,0.6-1.3,0.5-1.7-0.6c0-0.1,0-0.4,0.1-0.5c0.3-0.2,0.6-0.4,0.9-0.6
		c0.1-0.1,0.4,0,0.4,0.1C20.5,33.4,20.7,33.8,20.9,34.2L20.9,34.2z"/>
	<path class="st0" d="M6.1,34.9c-0.9-0.2-1.3-0.2-1.2-0.6C5,33.4,5.2,33,5.6,33c0.8,0,1.2,0.3,1.2,0.7C6.8,34.5,6.5,34.9,6.1,34.9z"
		/>
	<path class="st0" d="M41.2,26.2c-0.1,0.5-0.3,0.9-0.5,1.4c0,0.1-0.3,0.1-0.4,0.1c-0.3-0.1-0.6-0.2-0.9-0.4
		c-0.1-0.1-0.2-0.3-0.2-0.5c0.1-0.3,0.2-0.6,0.4-0.9c0.1-0.1,0.4-0.2,0.6-0.1C40.6,25.9,40.9,26,41.2,26.2L41.2,26.2z"/>
	<path class="st0" d="M34.7,52c0.4,0.5,1,0.9,1,1.3c0,0.4-0.6,0.7-1,1.1c-0.4-0.3-1-0.7-1-1C33.7,52.9,34.3,52.5,34.7,52z"/>
	<path class="st0" d="M39.2,34.8c0,0.3-0.7,0.7-1.2,0.8c-0.3,0-0.7-0.7-0.8-1.2c0-0.3,0.7-0.7,1.2-0.8
		C38.8,33.6,39.2,34.3,39.2,34.8z"/>
	<path class="st0" d="M43.7,32.3c-0.9,0-1.2-0.1-1.2-0.6c0-1,0.2-1.3,0.6-1.2c1,0.1,1.3,0.1,1.2,0.6C44.2,32.1,44.2,32.3,43.7,32.3z
		"/>
	<path class="st0" d="M33.8,23.1c0.3,0.1,0.9,0.9,1,1.3c0,0.2-0.8,0.9-1.2,0.9c-0.2,0-1-0.9-0.8-1.1C33,23.8,33.5,23.5,33.8,23.1z"
		/>
	<path class="st0" d="M12.7,37.7c0.2-0.5,0.3-0.8,0.5-1.2c0.1-0.1,0.3-0.3,0.5-0.3c0.3,0.1,0.6,0.2,0.9,0.4c0.1,0.1,0.2,0.3,0.2,0.4
		c-0.1,0.4-0.2,0.7-0.4,1.1c0,0.1-0.3,0.2-0.3,0.2C13.6,38,13.1,37.9,12.7,37.7z"/>
	<path class="st0" d="M20.4,20.6c0,0.5-0.5,1.2-0.8,1.2c-0.5,0-1.2-0.5-1.2-0.8c0-0.5,0.5-1.2,0.8-1.2
		C19.6,19.9,20.4,20.4,20.4,20.6z"/>
	<path class="st0" d="M26.2,38.3c0.2,0.2,0.8,0.6,0.8,0.8c0,0.4-0.4,0.9-0.8,1.1C26,40.5,25,39.8,25,39.5C25,39,25.7,38.3,26.2,38.3
		z"/>
	<path class="st0" d="M43,39.9c-0.6,0.3-1,0.6-1.4,0.8c-0.2,0.1-1-1-0.8-1.2c0.3-0.4,0.8-0.8,1.1-0.8C42.2,38.7,42.5,39.4,43,39.9z"
		/>
	<path class="st0" d="M46.9,23.3c-0.3-0.1-0.9-0.9-1-1.2c0-0.2,0.8-0.9,1.2-0.9c0.2,0,1,1,0.8,1.2C47.7,22.7,47.2,23,46.9,23.3z"/>
	<path class="st0" d="M31.8,20.9c-0.1,0.3-0.9,1-1.3,1c-0.2,0-0.8-0.8-0.9-1.1c0-0.2,0.9-1,1.1-0.9C31.2,20.1,31.5,20.6,31.8,20.9z"
		/>
	<path class="st0" d="M50.8,24.6c0.3,0.1,0.9,0.9,1,1.2c0,0.2-0.8,0.9-1.1,0.9c-0.2,0-1-0.9-0.9-1.2C50,25.2,50.5,24.9,50.8,24.6z"
		/>
	<path class="st0" d="M28.8,32.3c-0.3,0.4-0.6,0.8-0.9,1.1c-0.2,0.2-1.3-0.6-1.2-0.8c0.2-0.4,0.5-0.8,0.8-1.2
		C27.7,31.2,28.7,32,28.8,32.3z"/>
	<path class="st0" d="M17.4,50.3c-0.3,0.4-0.6,1-1,1.1c-0.3,0.1-0.8-0.4-1.1-0.8c-0.2-0.2,0.6-1.2,0.8-1.2
		C16.4,49.4,17.3,50,17.4,50.3z"/>
	<path class="st0" d="M28.5,21.5c-0.3,0.4-0.6,0.8-0.9,1.1c-0.2,0.1-1.2-0.6-1.2-0.8c0-0.3,0.7-1.2,0.9-1.2
		C27.6,20.6,28.4,21.2,28.5,21.5z"/>
	<path class="st0" d="M23.7,54.1c-0.4-0.3-0.8-0.6-1-1c-0.1-0.2,0.6-1.2,0.8-1.2c0.3,0,1.2,0.6,1.2,0.9C24.6,53.2,24,54,23.7,54.1z"
		/>
	<path class="st0" d="M27.8,44.5c-0.3,0.4-0.6,0.8-0.9,1.1c-0.2,0.1-1.2-0.6-1.2-0.8c0-0.3,0.6-1.2,0.9-1.2
		C26.9,43.6,27.7,44.2,27.8,44.5z"/>
	<path class="st0" d="M15,40.7c0.4,0.3,1,0.6,1,0.9c0,0.4-0.4,0.8-0.8,1.2c-0.2,0.2-1.2-0.6-1.2-0.8C14.1,41.6,14.7,40.8,15,40.7z"
		/>
	<path class="st0" d="M14.5,31.8c-0.3,0.4-0.6,0.8-0.9,1.1c-0.2,0.2-1.3-0.6-1.2-0.8c0.2-0.4,0.5-0.8,0.8-1.2
		C13.4,30.7,14.3,31.5,14.5,31.8z"/>
	<path class="st0" d="M37.5,39.5c-0.3,0.4-0.6,0.8-0.9,1.1c-0.2,0.2-1.2-0.6-1.2-0.8c0-0.3,0.6-1.2,0.8-1.2
		C36.6,38.6,37.4,39.1,37.5,39.5z"/>
	<path class="st0" d="M11.8,45.4c0.4,0.3,1,0.6,1,1c0,0.3-0.4,0.8-0.8,1.1c-0.2,0.2-1.2-0.6-1.2-0.8C10.9,46.3,11.5,45.5,11.8,45.4z
		"/>
	<path class="st0" d="M20.9,34.2c0.1-0.1,0.1-0.2,0.2-0.3c0.6-1,0.5-1,1.5-0.4c0.4,0.2,0.5,0.4,0.2,0.8c0,0.1-0.1,0.1-0.1,0.2
		c-0.2,0.2-0.5,0.6-0.6,0.6C21.6,34.9,21,34.8,20.9,34.2C20.9,34.2,20.9,34.2,20.9,34.2z"/>
	<path class="st0" d="M41.3,26.2c0.1-0.6,0.6-0.7,1-1c0.1,0,0.2,0,0.3,0c0,0,0.1,0.1,0.1,0.1c0.8,1.1,0.9,0.9-0.2,1.7
		c-0.1,0.1-0.5,0-0.6-0.1C41.6,26.7,41.5,26.4,41.3,26.2C41.2,26.2,41.3,26.2,41.3,26.2z"/>
	<path class="st0" d="M30.5,44.4c0.4,0.3,1,0.6,1,0.9c0,0.4-0.4,0.8-0.8,1.2c-0.2,0.2-1.2-0.6-1.2-0.8
		C29.6,45.4,30.2,44.5,30.5,44.4z"/>
	<path class="st0" d="M21.4,38.6c-0.4-0.3-1-0.6-1-0.9c0-0.4,0.4-0.8,0.7-1.2c0.2-0.2,1.2,0.6,1.2,0.8
		C22.3,37.7,21.7,38.5,21.4,38.6z"/>
	<path class="st0" d="M34.3,12c-0.4-0.5-0.9-1-0.8-1.3c0.1-0.4,0.7-0.6,1-1c0.3,0.4,0.9,0.8,0.9,1.1C35.3,11.2,34.7,11.6,34.3,12z"
		/>
	<path class="st0" d="M29,26.8c-0.4-0.3-0.8-0.6-1-1c-0.2-0.3,0.6-1.2,0.9-1.1c0.4,0,1.1,0.6,1.1,0.9C30,25.9,29.4,26.7,29,26.8z"/>
	<path class="st0" d="M38.8,45.1c-0.3,0.4-0.6,1-0.9,1c-0.4,0.1-0.9-0.4-1.2-0.7c-0.2-0.2,0.6-1.2,0.8-1.2
		C37.8,44.2,38.7,44.8,38.8,45.1z"/>
	<path class="st0" d="M21.2,43.6c0.4,0.3,1,0.6,1,0.9c0.1,0.4-0.4,0.9-0.7,1.2c-0.2,0.2-1.2-0.6-1.2-0.8
		C20.3,44.6,20.9,43.7,21.2,43.6z"/>
	<path class="st0" d="M40.8,55c-0.4-0.3-0.8-0.6-1-1c-0.2-0.3,0.6-1.2,0.9-1.1c0.4,0,1.1,0.6,1.1,0.9C41.7,54.1,41.1,54.9,40.8,55z"
		/>
	<path class="st0" d="M36.3,36.1c-0.4-0.3-0.8-0.6-1.1-0.9C35,34.9,35.8,34,36,34c0.3,0,1.2,0.6,1.1,0.8
		C37.2,35.2,36.6,36,36.3,36.1z"/>
	<path class="st0" d="M33.6,14.8c0.4,0.4,0.2,0.9,0,1.3c-0.1,0.2-0.7,0.1-1,0.1c-0.1,0-0.3-0.3-0.3-0.5c0-0.1,0-0.3,0-0.4
		c0.1-0.6,0.2-0.6,0.7-0.6C33.2,14.8,33.4,14.8,33.6,14.8L33.6,14.8z"/>
	<path class="st0" d="M41.7,30.8c0,0.8-0.1,0.8-0.7,0.8c-0.4,0-0.9,0.1-0.8-0.6c0-0.9,0.1-1,0.6-1C41.7,30.2,41.7,30.2,41.7,30.8z"
		/>
	<path class="st0" d="M20.7,29.9c0,0.3-0.5,0.6-1.1,0.6c-0.3,0-0.6-0.5-0.6-1.1c0-0.3,0.5-0.6,1.1-0.6
		C20.5,28.8,20.7,29.3,20.7,29.9z"/>
	<path class="st0" d="M14.5,45.2c0.4,0,0.6,0.4,0.6,1c0,0.4-0.3,0.4-1,0.6c-0.3,0.1-0.6-0.4-0.6-1C13.5,45.4,13.9,45.2,14.5,45.2z"
		/>
	<path class="st0" d="M38.3,16.7c-0.2,0-0.3-0.1-0.4-0.1c-0.6,0.2-0.5-0.3-0.6-0.6c-0.1-0.3,0-0.5,0.3-0.5c0.2,0,0.7-0.1,0.7,0
		c0.1,0.3,0.5,0.6,0.1,1C38.3,16.5,38.3,16.6,38.3,16.7z"/>
	<path class="st0" d="M46.5,18c0.4,0.3,0.8,0.5,0.8,0.8c0,0.3-0.3,0.5-0.5,0.8c-0.3-0.2-0.7-0.3-0.8-0.6C46,18.7,46.3,18.4,46.5,18z
		"/>
	<path class="st0" d="M17.3,39.6c-0.1,0.2,0.1,0.8-0.5,0.7c-0.3-0.1-0.8,0.1-0.7-0.5c0.1-0.3-0.1-0.8,0.5-0.7
		C16.9,39.1,17.4,39,17.3,39.6z"/>
	<path class="st0" d="M17.9,30c-0.2,0.2,0.1,0.8-0.5,0.8c-0.3,0-0.8,0.1-0.8-0.5c0-0.3-0.1-0.8,0.5-0.8C17.4,29.5,17.9,29.4,17.9,30
		z"/>
	<path class="st0" d="M15.4,51.4c0.2,0.1,0.8-0.1,0.7,0.5c0,0.3,0.1,0.8-0.5,0.8c-0.3,0-0.8,0.1-0.7-0.5
		C14.9,51.9,14.7,51.3,15.4,51.4z"/>
	<path class="st0" d="M11.3,26.9c0,0.6-0.5,0.5-0.8,0.5c-0.6,0-0.4-0.5-0.4-0.8c0-0.6,0.5-0.5,0.8-0.5
		C11.4,26.1,11.1,26.7,11.3,26.9z"/>
	<path class="st0" d="M7.8,26.5C8,26.7,8.6,26.4,8.5,27c0,0.3,0.1,0.8-0.5,0.8c-0.3,0-0.8,0.1-0.8-0.5C7.3,27,7.2,26.6,7.8,26.5z"/>
	<path class="st0" d="M39,4.4c-0.4-0.3-0.8-0.5-0.9-0.8c0-0.3,0.3-0.6,0.5-0.8c0.3,0.2,0.7,0.3,0.8,0.6C39.5,3.6,39.2,4,39,4.4z"/>
	<path class="st0" d="M23.4,33.9c0.1-0.3-0.1-0.8,0.5-0.7c0.3,0.1,0.8-0.1,0.7,0.5c-0.1,0.3,0.1,0.8-0.5,0.7
		C23.8,34.4,23.3,34.5,23.4,33.9z"/>
	<path class="st0" d="M29.6,34.3c0.5,0.1,0.5,0.5,0.5,0.8c0.1,0.5-0.5,0.5-0.8,0.5c-0.5,0.1-0.5-0.5-0.5-0.8
		C28.7,34.4,29.3,34.5,29.6,34.3z"/>
	<path class="st0" d="M23.3,35.9c0.1-0.2-0.1-0.8,0.5-0.7c0.3,0,0.8-0.1,0.8,0.5c0,0.3,0.1,0.8-0.5,0.8
		C23.7,36.4,23.2,36.6,23.3,35.9z"/>
	<path class="st0" d="M26.4,29.2c0.2,0.4,0.6,0.7,0.5,1c-0.1,0.3-0.5,0.4-0.8,0.6c-0.2-0.3-0.6-0.6-0.6-0.8
		C25.6,29.7,26,29.5,26.4,29.2z"/>
	<path class="st0" d="M41.2,25.5c-0.6-0.1-0.6-0.6-0.6-0.9c0-0.5,0.5-0.5,0.8-0.5c0.5,0,0.5,0.5,0.5,0.8
		C41.8,25.1,41.4,25.3,41.2,25.5z"/>
	<path class="st0" d="M15.4,25.9c-0.1,0.3,0.1,0.9-0.6,0.8c-0.3-0.1-0.8,0.1-0.7-0.5c0.1-0.3-0.1-0.9,0.6-0.7
		C15,25.5,15.4,25.4,15.4,25.9z"/>
	<path class="st0" d="M22.7,51c-0.4,0.2-0.7,0.6-1,0.5c-0.3-0.1-0.6-0.5-0.6-0.8c0-0.2,0.5-0.6,0.8-0.6C22.2,50.2,22.4,50.6,22.7,51
		z"/>
	<path class="st0" d="M34,9.4C33.9,10,33.4,10,33.1,10c-0.5,0-0.5-0.5-0.5-0.8c0-0.5,0.5-0.5,0.8-0.5C33.7,8.8,33.9,9.2,34,9.4z"/>
	<path class="st0" d="M25.3,28.5c-0.1,0.2,0.1,0.8-0.5,0.7c-0.3-0.1-0.9,0.1-0.7-0.6c0.1-0.3-0.1-0.8,0.4-0.7
		C24.8,27.9,25.4,27.7,25.3,28.5z"/>
	<path class="st0" d="M46.9,46.1c-0.1,0.7-0.6,0.6-0.9,0.7c-0.5,0-0.4-0.5-0.5-0.8c-0.1-0.5,0.5-0.5,0.8-0.5
		C46.6,45.5,46.7,45.9,46.9,46.1z"/>
	<path class="st0" d="M20.6,22.2c0.1-0.3-0.1-0.8,0.5-0.7c0.3,0,0.8-0.1,0.7,0.5c0,0.3,0.1,0.8-0.5,0.8C21,22.6,20.5,22.8,20.6,22.2
		z"/>
	<path class="st0" d="M26.7,42c-0.1,0.3,0.1,0.8-0.5,0.7c-0.3,0-0.9,0.1-0.8-0.5c0.1-0.3-0.1-0.8,0.5-0.7
		C26.2,41.5,26.7,41.4,26.7,42z"/>
	<path class="st0" d="M17.3,41.1c0.3,0.2,0.8-0.1,0.8,0.5c0,0.3,0.1,0.9-0.5,0.8c-0.3,0-0.8,0.1-0.8-0.5
		C16.9,41.6,16.7,41.1,17.3,41.1z"/>
	<path class="st0" d="M52,38.8c0.5,0.2,0.6,0.6,0.6,0.9c0,0.5-0.5,0.5-0.8,0.5c-0.5,0-0.5-0.6-0.4-0.8C51.4,39.1,51.8,38.9,52,38.8z
		"/>
	<path class="st0" d="M22.7,13.1c0.3,0.1,0.8-0.1,0.7,0.5c0,0.3,0.1,0.8-0.5,0.7c-0.3,0-0.8,0.1-0.7-0.5
		C22.3,13.6,22.2,13.1,22.7,13.1z"/>
	<path class="st0" d="M37,21.5c-0.2,0.6-0.6,0.6-0.9,0.6c-0.5,0-0.5-0.5-0.5-0.8c0-0.5,0.6-0.5,0.8-0.4C36.7,20.8,36.8,21.3,37,21.5
		z"/>
	<path class="st0" d="M36.9,46.4c0.5,0.2,0.6,0.6,0.6,0.9c0,0.5-0.5,0.5-0.8,0.5c-0.5,0-0.5-0.6-0.5-0.8
		C36.2,46.8,36.6,46.6,36.9,46.4z"/>
	<path class="st0" d="M39.9,28.8c-0.1,0.3,0.1,0.8-0.5,0.7c-0.3-0.1-0.8,0.1-0.7-0.5c0-0.3-0.1-0.9,0.5-0.8
		C39.5,28.3,39.9,28.1,39.9,28.8z"/>
	<path class="st0" d="M29.9,33.4c-0.1,0.3,0.1,0.8-0.5,0.7c-0.3,0-0.8,0.1-0.7-0.5c0-0.3-0.1-0.8,0.5-0.7
		C29.4,32.9,29.9,32.8,29.9,33.4z"/>
	<path class="st0" d="M39,30.8c-0.1,0.6-0.6,0.6-0.9,0.6c-0.5,0-0.5-0.5-0.5-0.8c0-0.5,0.5-0.5,0.8-0.5C38.6,30.2,38.8,30.6,39,30.8
		z"/>
	<path class="st0" d="M16.7,20.8c0.3,0.1,0.9-0.1,0.8,0.5c0,0.3,0.1,0.8-0.5,0.7c-0.3,0-0.9,0.1-0.8-0.5
		C16.3,21.2,16.2,20.8,16.7,20.8z"/>
	<path class="st0" d="M21.2,36.3c-0.3-0.1-0.8,0.1-0.7-0.5c0.1-0.3-0.1-0.8,0.5-0.7c0.3,0.1,0.8-0.1,0.7,0.5
		C21.6,35.8,21.8,36.3,21.2,36.3z"/>
	<path class="st0" d="M19.1,45.5c-0.3-0.1-0.8,0.1-0.7-0.5c0.1-0.3-0.1-0.8,0.5-0.7c0.3,0,0.9-0.1,0.8,0.5
		C19.6,45.1,19.7,45.6,19.1,45.5z"/>
	<path class="st0" d="M44.9,36.8c-0.2,0.6-0.6,0.6-0.9,0.6c-0.5,0-0.5-0.5-0.5-0.8c0-0.5,0.6-0.5,0.8-0.4
		C44.6,36.2,44.8,36.6,44.9,36.8z"/>
	<path class="st0" d="M14.1,14c-0.1,0.3,0.1,0.8-0.5,0.7c-0.3-0.1-0.8,0.1-0.7-0.5c0.1-0.3-0.1-0.8,0.5-0.7
		C13.6,13.5,14.1,13.4,14.1,14z"/>
	<path class="st0" d="M17.3,10c0.1,0.7-0.4,0.5-0.7,0.6c-0.6,0.1-0.5-0.5-0.5-0.8c-0.1-0.6,0.5-0.4,0.8-0.5
		C17.4,9.2,17.2,9.8,17.3,10z"/>
	<path class="st0" d="M32.6,35.5c-0.5,0.1-0.6-0.2-0.6-0.6c0-0.5,0.2-0.6,0.7-0.6c0.5,0,0.6,0.2,0.6,0.6
		C33.2,35.4,33,35.6,32.6,35.5z"/>
	<path class="st0" d="M22.3,24c-0.3-0.1-0.8,0.1-0.7-0.6c0.1-0.3-0.1-0.8,0.5-0.7c0.3,0.1,0.8-0.1,0.7,0.5C22.8,23.5,23,24,22.3,24z
		"/>
	<path class="st0" d="M27.4,39.8c0.3,0.4,0.6,0.7,0.6,1c0,0.3-0.5,0.4-0.7,0.7c-0.2-0.3-0.6-0.5-0.6-0.8
		C26.7,40.3,27.1,40.1,27.4,39.8z"/>
	<path class="st0" d="M46.5,31.3c-0.1,0.6-0.6,0.6-0.9,0.6c-0.5,0-0.5-0.5-0.5-0.8c0-0.5,0.6-0.5,0.8-0.5
		C46.2,30.7,46.4,31.1,46.5,31.3z"/>
	<path class="st0" d="M40.6,51.4c-0.5,0.1-0.6-0.2-0.6-0.6c0-0.5,0.2-0.6,0.7-0.6c0.5,0,0.6,0.2,0.6,0.7
		C41.3,51.4,41.1,51.5,40.6,51.4z"/>
	<path class="st0" d="M44,24.9c-0.6-0.1-0.6-0.6-0.7-0.9c0-0.5,0.5-0.5,0.8-0.5c0.5,0,0.5,0.5,0.5,0.8C44.6,24.5,44.2,24.7,44,24.9z
		"/>
	<path class="st0" d="M26.9,27.8c0.1-0.4-0.2-1,0.6-0.9c0.5,0.1,0.6,0.2,0.4,0.8C27.9,28,27.6,28.1,26.9,27.8z"/>
	<path class="st0" d="M28.1,16.8c-0.4,0-0.6-0.1-0.6-0.5c0-0.3,0.1-0.6,0.5-0.6c0.3,0,0.7-0.1,0.6,0.4
		C28.5,16.5,28.5,16.9,28.1,16.8z"/>
	<path class="st0" d="M16.5,13.8c0,0.4,0,0.7-0.5,0.6c-0.3-0.1-0.6,0-0.6-0.5c0.1-0.3,0.1-0.6,0.5-0.5
		C16.2,13.5,16.6,13.4,16.5,13.8z"/>
	<path class="st0" d="M47.9,31.7c0.4-0.2,0.6-0.3,0.9-0.4c0.4,0,0.4,0.4,0.4,0.6c0.1,0.5-0.4,0.4-0.7,0.4
		C48.4,32.4,48.2,32.1,47.9,31.7z"/>
	<path class="st0" d="M48.9,43.8c0,0.6-0.4,0.6-0.7,0.6c-0.5,0-0.4-0.4-0.4-0.6c-0.1-0.5,0.4-0.4,0.7-0.4
		C48.7,43.3,48.8,43.7,48.9,43.8z"/>
	<path class="st0" d="M33.1,12.3c-0.3,0-0.7,0-0.6-0.5c0-0.3-0.1-0.6,0.4-0.6c0.3,0,0.7-0.1,0.6,0.4C33.5,12,33.6,12.4,33.1,12.3z"
		/>
	<path class="st0" d="M16.6,16.5c0-0.3-0.1-0.6,0-0.7c0.1-0.1,0.4-0.2,0.7-0.1c0.1,0,0.3,0.4,0.2,0.5c-0.2,0.2-0.4,0.3-0.7,0.5
		C16.7,16.6,16.7,16.6,16.6,16.5z"/>
	<path class="st0" d="M38.1,42.9c0.3,0,0.5,0.1,0.4,0.4c0,0.3-0.1,0.4-0.4,0.4c-0.3,0-0.5-0.1-0.5-0.4C37.7,43,37.8,42.8,38.1,42.9z
		"/>
	<path class="st0" d="M25.1,10.9c0.2,0.3,0.5,0.4,0.5,0.6c0,0.2-0.3,0.5-0.4,0.5c-0.2,0-0.5-0.3-0.5-0.4
		C24.6,11.4,24.9,11.2,25.1,10.9z"/>
	<path class="st0" d="M14.9,21.4c-0.1-0.2-0.3-0.4-0.4-0.7c0-0.1,0.3-0.4,0.5-0.4c0.2,0,0.5,0.3,0.5,0.4c0,0.2-0.2,0.4-0.3,0.7
		C15.1,21.4,15,21.4,14.9,21.4z"/>
	<path class="st0" d="M41.6,22.2c-0.3,0.2-0.5,0.4-0.8,0.5c-0.1,0-0.4-0.3-0.4-0.4c0-0.2,0.3-0.5,0.4-0.5C41,21.8,41.2,22,41.6,22.2
		z"/>
	<path class="st0" d="M11.3,33.1c-0.1-0.4-0.3-0.6-0.3-0.8c0-0.2,0.3-0.3,0.5-0.3c0.4-0.1,0.4,0.3,0.4,0.5
		C11.8,32.7,11.6,32.8,11.3,33.1z"/>
	<path class="st0" d="M16.2,46.9c-0.3,0.2-0.5,0.5-0.6,0.5c-0.2,0-0.5-0.3-0.5-0.5c0-0.1,0.3-0.5,0.4-0.5
		C15.7,46.5,15.9,46.7,16.2,46.9z"/>
	<path class="st0" d="M20.5,30.4c0.2,0.3,0.4,0.4,0.5,0.7c0,0.1-0.2,0.5-0.3,0.4c-0.2,0-0.5-0.2-0.8-0.3
		C20.1,30.9,20.3,30.7,20.5,30.4z"/>
	<path class="st0" d="M33.6,14.8c-0.6-0.5-0.6-0.6-0.2-1c0.3-0.2,0.4,0,0.6,0.1c0.2,0.2,0.3,0.3,0.1,0.5
		C33.9,14.6,33.8,14.7,33.6,14.8C33.6,14.8,33.6,14.8,33.6,14.8z"/>
	<path class="st0" d="M52.3,17.9c-0.1-0.2-0.3-0.4-0.4-0.7c0-0.1,0.3-0.4,0.5-0.4c0.2,0,0.5,0.3,0.5,0.4c0,0.2-0.2,0.4-0.4,0.7
		C52.4,17.9,52.4,17.9,52.3,17.9z"/>
	<path class="st0" d="M54.6,36.3c-0.2-0.4-0.4-0.6-0.5-0.8c0-0.1,0.3-0.4,0.5-0.4c0.2,0,0.5,0.3,0.5,0.4
		C55.1,35.7,54.9,35.9,54.6,36.3z"/>
	<path class="st0" d="M24.6,40c-0.4,0.2-0.6,0.4-0.8,0.5c-0.1,0-0.4-0.3-0.4-0.5c0-0.2,0.3-0.5,0.4-0.5C24.1,39.6,24.3,39.8,24.6,40
		z"/>
	<path class="st0" d="M32.1,28.9c0.3,0,0.5,0,0.5,0.4c0,0.3-0.1,0.5-0.4,0.5c-0.3,0-0.5,0-0.4-0.4C31.7,29.1,31.7,28.9,32.1,28.9z"
		/>
	<path class="st0" d="M10.3,38.8c-0.1-0.2-0.3-0.4-0.4-0.7c0-0.1,0.3-0.4,0.5-0.4c0.2,0,0.5,0.3,0.5,0.4c0,0.2-0.2,0.4-0.4,0.7
		C10.4,38.8,10.4,38.8,10.3,38.8z"/>
	<path class="st0" d="M41.4,28.7c0.1,0.2,0.4,0.4,0.4,0.6c0,0.1-0.3,0.4-0.4,0.4c-0.2,0-0.5-0.2-0.5-0.4c0-0.2,0.2-0.4,0.3-0.7
		C41.3,28.7,41.3,28.7,41.4,28.7z"/>
</g>
</svg>
