<?xml version="1.0" encoding="utf-8"?>
<!-- Generator: Adobe Illustrator 19.1.0, SVG Export Plug-In . SVG Version: 6.00 Build 0)  -->
<svg version="1.1" id="Layer_1" xmlns="http://www.w3.org/2000/svg" xmlns:xlink="http://www.w3.org/1999/xlink" x="0px" y="0px"
	 viewBox="0 0 60 60" style="enable-background:new 0 0 60 60;" xml:space="preserve">
<style type="text/css">
	.st0{fill:#FFFFFF;}
</style>
<path class="st0" d="M9.2,8.7c0,0.5,0,0.9,0,1.3c0,0.1,0,0.1,0,0.2c0,0.2,0,0.4,0,0.7c0,0,0,0.1,0,0.1c0,0.7,0,1.4,0.1,2.1
	c0,0.9,0.2,1.7,0.4,2.5c0.3,1,0.7,2,1.5,2.8c0.7,0.7,1.6,1,2.5,1c0.1,0,0.2,0,0.4,0c0.4,0,0.7-0.1,1.1-0.1c1.3-0.1,2.6-0.1,3.9-0.2
	c2.3-0.1,4.7-0.2,7-0.2c1.2,0,2.5-0.1,3.7-0.1c0.2,0,0.5,0,0.7,0c4.4,0.1,8.9,0.3,13.3,0.4c0.4,0,0.9,0,1.3,0.1
	c0.4,0,0.8,0.1,1.3,0.1c0.2,0,0.4,0,0.6,0c0.8-0.1,1.5-0.5,2.1-1.2c0.7-0.8,1.1-1.8,1.4-2.9c0.1-0.2,0.1-0.5,0.1-0.7c0,0,0,0,0,0
	c0,0,0,0,0-0.1c0.2-0.9,0.3-1.8,0.3-2.7c0-1,0-2.1,0-3.1c1.6,2.4,2.8,5,3.1,7.9c0,0.1,0,0.2,0,0.3c0,0.6,0,1.1-0.1,1.7
	c-0.1,0.4-0.2,0.8-0.3,1.3c-0.3,1.1-1,1.9-1.7,2.7c-0.2,0-0.3,0.2-0.4,0.3c-0.7,0.5-1.4,0.9-2.1,1.3c-1.7,0.8-3.6,1.2-5.5,1.5
	c-0.6,0.1-1.2,0.1-1.8,0.2c0.7,0.1,1.4,0.2,2.1,0.3c1.9,0.3,3.7,0.6,5.5,1.2c0.5,0.2,0.9,0.4,1.3,0.7c0.2,0.1,0.2,0.2,0,0.4
	c-1.1,1.6-2.8,2.6-4.7,2.6c-0.4,0-0.9,0-1.3-0.1c-0.8-0.2-1.6-0.5-2.3-0.9c-0.1,0-0.1,0-0.1,0c-0.1,0-0.1,0-0.1,0.1
	c-1,2.3-2,4.6-3.1,6.9c-0.6,1.4-1.3,2.8-1.9,4.2c-0.1,0.2-0.2,0.3-0.3,0.5c-0.5,1-0.5,1.9,0.4,2.6c0.2,0.2,0.3,0.5,0.3,0.8
	c0,0.6-0.2,1.2-0.5,1.8c-0.5,1.2-1.3,2.2-2.1,3.3c-0.1,0.1-0.1,0.1-0.2,0.1c-0.8,0.2-1.6,0.5-2.4,0.7c-0.8,0.2-1.6,0.4-2.4,0.4
	c-0.2,0-0.4,0-0.5,0c0,0-0.1,0-0.1,0c-0.5,0-0.9-0.1-1.4-0.1c-1.1-0.2-2.1-0.5-3.2-0.8c-0.6-0.2-1.1-0.5-1.4-1c-0.7-1-1.4-2-1.8-3.2
	c-0.2-0.4-0.3-0.9-0.2-1.4c0-0.2,0.2-0.4,0.3-0.6c0.8-0.8,1-1.5,0.4-2.5c-0.5-0.9-0.9-1.8-1.3-2.7c-1.3-3-2.6-5.9-4-8.9
	c-0.1-0.1-0.1-0.2-0.2-0.2c0,0-0.1,0-0.2,0.1c-1,0.5-2.1,0.9-3.2,1c-0.1,0-0.3,0-0.4,0c-1.6,0-3-0.6-4.1-1.8
	c-0.2-0.3-0.5-0.5-0.7-0.8c-0.1-0.1-0.1-0.2,0.1-0.3c0.3-0.2,0.6-0.4,1-0.5c2.5-1,5.1-1.2,7.7-1.6c0,0,0.1,0,0.1-0.1
	c-0.1,0-0.3,0-0.4,0c-0.1,0-0.3,0-0.4-0.1c-2.2-0.3-4.4-0.8-6.4-1.7c-1.3-0.6-2.5-1.5-3.4-2.7c-0.4-0.5-0.7-1.1-0.8-1.8
	c-0.1-0.3-0.2-0.6-0.2-1c0-0.5-0.1-1-0.1-1.4c0-1.1,0.3-2.2,0.6-3.2c0.5-1.6,1.2-3.1,2.1-4.6c0.1-0.1,0.1-0.2,0.2-0.3
	C9,8.9,9,8.8,9.2,8.7 M49.3,3.8l0,5l0,0.5c0,0.9,0,1.7,0,2.5c0,0.6-0.1,1.3-0.2,2.1l-0.2,0.3l0.1,0.5l0,0.1c0,0,0,0.1,0,0.1
	c0,0.1,0,0.2-0.1,0.2c-0.2,0.9-0.5,1.7-1,2.2c-0.3,0.4-0.7,0.6-1.2,0.7c-0.1,0-0.2,0-0.4,0c-0.2,0-0.4,0-0.7,0c-0.2,0-0.4,0-0.5,0
	l-0.4,0c-0.3,0-0.6,0-0.9,0L41,17.7c-3.5-0.1-7-0.2-10.5-0.3c-0.3,0-0.5,0-0.8,0c-0.8,0-1.6,0-2.4,0.1c-0.4,0-0.9,0-1.3,0
	c-2.3,0.1-4.7,0.1-7,0.2c-1.3,0-2.6,0.1-4,0.2c-0.3,0-0.6,0-0.9,0.1l-0.2,0c-0.1,0-0.2,0-0.2,0c-0.6,0-1.1-0.2-1.5-0.6
	c-0.5-0.5-0.8-1.1-1.1-2.1c-0.2-0.8-0.3-1.5-0.4-2.2l0-0.1l0-0.1c-0.1-0.6-0.1-1.2-0.1-1.9l0-0.2l0-0.1l0-0.1c0-0.1,0-0.3,0-0.3
	l0-0.1l0-0.1l0-0.2l0-1.3V4L7.9,7.8L7.8,8C7.8,8.1,7.7,8.2,7.6,8.3C7.6,8.3,7.5,8.4,7.5,8.5c0,0,0,0.1-0.1,0.1
	c-1,1.7-1.8,3.3-2.3,4.9c-0.4,1.3-0.6,2.5-0.6,3.6c0,0.4,0,0.7,0,1c0,0.2,0,0.4,0,0.5l0,0.1l0,0.1c0,0.4,0.1,0.7,0.2,1l0.1,0.2
	c0.2,0.9,0.6,1.6,1.1,2.3c1,1.3,2.3,2.4,3.9,3.1c0.2,0.1,0.4,0.2,0.6,0.3c-0.4,0.1-0.8,0.2-1.1,0.4c-0.4,0.2-0.8,0.4-1.2,0.6
	c-0.4,0.2-0.7,0.6-0.8,1.1c-0.1,0.4,0,0.9,0.2,1.3c0.2,0.4,0.5,0.7,0.8,1c1.4,1.5,3.2,2.3,5.2,2.3c0.2,0,0.3,0,0.5,0
	c0.9-0.1,1.7-0.2,2.6-0.6c1.1,2.6,2.3,5.2,3.5,7.8c0.1,0.2,0.2,0.4,0.3,0.6c0.3,0.7,0.6,1.5,1.1,2.2c0.2,0.3,0.2,0.3-0.2,0.6
	c-0.4,0.4-0.7,0.9-0.8,1.4c-0.2,0.8,0.1,1.6,0.3,2.1c0.5,1.3,1.2,2.3,1.8,3.3l0.2,0.3c0.6,0.8,1.3,1.4,2.3,1.6l0.5,0.1
	c0.9,0.2,1.8,0.5,2.8,0.6l0.1,0l0.1,0c0.1,0,0.3,0,0.4,0.1c0.3,0,0.7,0.1,1.1,0.1l0.1,0l0,0l0,0l0.2,0c0.1,0,0.3,0,0.4,0
	c0.9-0.1,1.8-0.3,2.6-0.5c0.8-0.2,1.6-0.4,2.4-0.7c0.4-0.1,0.7-0.3,0.9-0.6c0.8-1,1.6-2.2,2.3-3.6c0.3-0.7,0.6-1.5,0.6-2.5
	c-0.1-1-0.5-1.5-0.9-1.9c-0.2-0.2-0.3-0.2,0-0.7c0,0,0-0.1,0.1-0.1c0.1-0.1,0.2-0.3,0.3-0.5c0.5-1.1,0.9-2.1,1.4-3.2l0.5-1.1
	l0.6-1.4c0.6-1.4,1.3-2.9,1.9-4.3c0.5,0.2,0.9,0.3,1.4,0.4c0.5,0.1,1.1,0.2,1.6,0.2c2.3,0,4.5-1.2,5.9-3.2c0.6-0.8,0.4-1.9-0.4-2.4
	c-0.5-0.4-1.1-0.6-1.7-0.9c-0.2-0.1-0.4-0.1-0.7-0.2c0.1-0.1,0.3-0.1,0.4-0.2c1-0.4,1.8-0.9,2.5-1.5l0.1-0.1l0.1,0l0.3-0.3
	c1.1-1,1.8-2.1,2.1-3.3c0.1-0.4,0.2-0.7,0.3-1.1l0.1-0.3l0-0.1l0-0.1l0-0.2c0-0.5,0.1-1.1,0-1.7l0-0.4l0,0c-0.3-2.9-1.4-5.7-3.3-8.5
	L49.3,3.8L49.3,3.8z"/>
<g>
	<path class="st0" d="M33.2,48c0.8,0,1.5-0.6,1.5-1.4c0-0.8-0.6-1.5-1.4-1.5c-0.8,0-1.5,0.6-1.5,1.4C31.8,47.4,32.4,48,33.2,48z"/>
</g>
<g>
	<path class="st0" d="M27.4,48c0.8,0,1.5-0.6,1.5-1.5c0-0.8-0.7-1.4-1.5-1.4c-0.8,0-1.4,0.7-1.4,1.4C25.9,47.4,26.6,48,27.4,48z"/>
</g>
</svg>
