<?xml version="1.0" encoding="utf-8"?>
<!-- Generator: Adobe Illustrator 14.0.0, SVG Export Plug-In . SVG Version: 6.00 Build 43363)  -->
<!DOCTYPE svg PUBLIC "-//W3C//DTD SVG 1.1//EN" "http://www.w3.org/Graphics/SVG/1.1/DTD/svg11.dtd">
<svg version="1.1" xmlns="http://www.w3.org/2000/svg" xmlns:xlink="http://www.w3.org/1999/xlink" x="0px" y="0px" width="154px"
	 height="90px" viewBox="0 0 154 90" enable-background="new 0 0 154 90" xml:space="preserve">
<g id="Background_xA0_Image_1_">
</g>
<g id="logo_1_" enable-background="new    ">
	<g>
		<path fill="#EE2D7B" d="M42.661,19.031c-0.023,0.024-0.039,0.051-0.061,0.075c0.064,0.046,0.132,0.079,0.199,0.118
			C42.754,19.156,42.704,19.104,42.661,19.031z"/>
		<path fill="#EE2D7B" d="M14.411,65.841c-0.209,0-0.427-0.066-0.653-0.198c0.104,0.14,0.195,0.294,0.309,0.423
			c0.482,0.517,0.931,0.775,1.345,0.775c0.412,0,1.309-0.292,2.689-0.88c1.309-0.584,1.963-1.033,1.963-1.344v-0.775
			c-0.069-0.068-0.12-0.137-0.154-0.206c-0.069-0.069-0.225-0.156-0.465-0.259c-0.135-0.056-0.257-0.119-0.381-0.181v0.421
			c0,0.311-0.654,0.76-1.963,1.344C15.719,65.549,14.823,65.841,14.411,65.841z"/>
		<path fill="#EE2D7B" d="M36.61,20.582c0.69-2.379,1.569-4.48,2.639-6.309c1.169-1.93,2.394-3.446,3.669-4.55
			c1.38-1.206,2.672-1.81,3.88-1.81c0.695,0,1.302,0.186,1.837,0.522c-0.067-0.111-0.125-0.231-0.201-0.334
			c-0.69-0.792-1.569-1.188-2.636-1.188c-1.208,0-2.5,0.604-3.88,1.81c-1.275,1.104-2.5,2.62-3.669,4.55
			c-1.069,1.828-1.948,3.93-2.639,6.309c-0.69,2.378-1.033,4.55-1.033,6.516c0,3.552,0.999,6.431,2.998,8.635
			c0.302,0.337,0.618,0.642,0.941,0.929c-1.958-2.195-2.939-5.049-2.939-8.563C35.577,25.132,35.919,22.96,36.61,20.582z"/>
		<path fill="#EE2D7B" d="M65.652,21.599c-0.587,0-1.276,0.361-2.069,1.085c-0.827,0.829-1.465,1.897-1.913,3.208
			c-0.481,1.448-0.725,3.067-0.725,4.86c0.373-0.108,0.709-0.233,1.05-0.356c0.093-1.263,0.317-2.431,0.674-3.504
			c0.448-1.311,1.086-2.379,1.913-3.208c0.793-0.724,1.482-1.085,2.069-1.085c0.196,0,0.372,0.036,0.538,0.089
			c-0.068-0.174-0.146-0.334-0.246-0.468C66.633,21.806,66.202,21.599,65.652,21.599z"/>
		<path fill="#EE2D7B" d="M42.66,63.739c1.275-0.862,2.138-1.81,2.585-2.845c0.518-0.999,0.777-2.085,0.777-3.258
			c0-1.826-0.604-3.446-1.812-4.859c-0.307-0.361-0.65-0.701-1.021-1.021c0.006,0.007,0.015,0.014,0.021,0.021
			c1.207,1.413,1.812,3.033,1.812,4.859c0,1.173-0.26,2.259-0.777,3.258c-0.447,1.035-1.31,1.982-2.585,2.845
			c-1.241,0.86-2.981,1.585-5.222,2.171c0.686,0.211,1.3,0.466,1.881,0.741C40.129,65.114,41.591,64.48,42.66,63.739z"/>
		<path fill="#EE2D7B" d="M58.505,78.967c-0.148-0.319-0.23-0.719-0.23-1.216l0.156-1.55l0.776-2.586l1.395-4.034l2.327-6.463
			l-1.382,0.062l-1.945,5.4l-1.395,4.034l-0.776,2.586l-0.156,1.55c0,0.758,0.173,1.312,0.518,1.654
			C57.983,78.681,58.224,78.86,58.505,78.967z"/>
		<path fill="#EE2D7B" d="M54.45,65.083c0-1.018-0.378-1.649-1.129-1.896c0.085,0.256,0.129,0.554,0.129,0.896
			c0,1.104-0.38,2.62-1.138,4.551c0.526-0.071,1.021-0.211,1.501-0.383C54.237,66.964,54.45,65.908,54.45,65.083z"/>
		<path fill="#EE2D7B" d="M36.778,52.327c-0.63-0.79-1.463-1.46-2.513-1.999c-1.344-0.619-2.86-0.93-4.55-0.93
			c-1.724,0-3.396,0.275-5.017,0.827s-3.101,1.275-4.445,2.171c-1.241,0.897-2.26,1.948-3.051,3.154
			c-0.76,1.173-1.138,2.379-1.138,3.619c0,1.166,0.498,2.073,1.479,2.727c-0.313-0.495-0.479-1.067-0.479-1.727
			c0-1.24,0.378-2.446,1.138-3.619c0.791-1.206,1.81-2.257,3.051-3.154c1.345-0.896,2.825-1.619,4.445-2.171
			s3.293-0.827,5.017-0.827c1.689,0,3.206,0.311,4.55,0.93C35.836,51.621,36.332,51.96,36.778,52.327z"/>
		<path fill="#EE2D7B" d="M55.311,35.361c-1.828,1.838-3.827,3.335-5.998,4.543c-2.138,1.204-4.946,1.81-8.429,1.81
			c-2.655,0-5.033-0.605-7.137-1.81c-0.854-0.456-1.615-1.018-2.322-1.643c0.95,1.063,2.043,1.959,3.322,2.643
			c2.104,1.204,4.481,1.81,7.137,1.81c3.482,0,6.291-0.605,8.429-1.81c1.954-1.087,3.761-2.424,5.437-4.017
			C55.563,36.403,55.406,35.9,55.311,35.361z"/>
		<path fill="#EE2D7B" d="M13.642,81.851c-0.232-0.477-0.353-1.08-0.353-1.823l0.206-1.655l0.209-1.551
			c0-0.93-0.312-1.396-0.933-1.396c-0.029,0-0.072,0.012-0.104,0.015c0.015,0.123,0.037,0.236,0.037,0.382l-0.209,1.551
			l-0.206,1.655C12.29,80.487,12.747,81.422,13.642,81.851z"/>
		<path fill="#EE2D7B" d="M41.962,77.997c0.602-0.294,1.244-0.743,1.879-1.255c0.204-0.828,0.318-1.68,0.318-2.56
			c0-2.624-0.909-4.687-2.711-6.201c1.138,1.384,1.711,3.116,1.711,5.201c0,1.448-0.275,2.827-0.827,4.136
			C42.234,77.56,42.081,77.77,41.962,77.997z"/>
		<path fill="#EE2D7B" d="M84.696,16.497c0.173-0.654,0.415-1.413,0.724-2.275c0.14-0.379,0.38-0.982,0.724-1.81
			c0.105-0.241,0.293-0.672,0.57-1.293c0.276-0.586,0.552-1.086,0.827-1.499c0.254-0.397,0.498-0.621,0.73-0.691
			c-0.038-0.157-0.07-0.317-0.126-0.464c-0.206-0.379-0.448-0.568-0.724-0.568c-0.277,0-0.57,0.24-0.88,0.724
			c-0.275,0.413-0.551,0.913-0.827,1.499c-0.277,0.621-0.465,1.052-0.57,1.293c-0.344,0.827-0.584,1.431-0.724,1.81
			c-0.309,0.862-0.551,1.621-0.724,2.275c-0.86,2.688-1.689,6.033-2.48,10.033c0.571-0.612,1.101-1.253,1.607-1.907
			C83.428,20.882,84.053,18.506,84.696,16.497z"/>
		<path fill="#EE2D7B" d="M72.767,80.215c-0.021-0.031-0.045-0.053-0.065-0.086c-0.586-0.896-0.879-2.222-0.879-3.981
			c0-1.584,0.239-3.307,0.725-5.171c0.447-1.791,1.204-3.29,2.273-4.498c0.784-0.952,1.821-1.497,3.083-1.676
			c0.302-0.323,0.624-0.648,0.985-0.979l-1.086-0.104c-1.689,0-3.018,0.586-3.982,1.758c-1.069,1.208-1.826,2.707-2.273,4.498
			c-0.485,1.864-0.725,3.587-0.725,5.171c0,1.76,0.293,3.085,0.879,3.981C72.016,79.629,72.373,79.983,72.767,80.215z"/>
		<path fill="#EE2D7B" d="M127.39,76.854l-0.052,0.776l-0.054,0.568c0,0.878,0.37,1.361,1.066,1.494
			c-0.032-0.154-0.066-0.306-0.066-0.494l0.054-0.568l0.052-0.776l0.05-0.621v-0.31c0-1.308-0.495-2.258-1.465-2.868
			c0.306,0.514,0.465,1.134,0.465,1.868v0.31L127.39,76.854z"/>
		<path fill="#EE2D7B" d="M92.907,41.155c0.692,0.953,1.535,1.453,2.544,1.453c1.791,0,4.474-1.814,8.021-5.38
			c-0.164-0.535-0.292-1.079-0.367-1.634c-3.869,4.002-6.756,6.014-8.653,6.014C93.886,41.608,93.373,41.454,92.907,41.155z"/>
		<path fill="#EE2D7B" d="M132.042,66.307c0,0.793-0.222,1.569-0.671,2.327c-0.414,0.69-1.208,1.396-2.379,2.119
			c-1.137,0.654-2.637,1.224-4.498,1.706c0.722,0.165,1.308,0.428,1.764,0.782c1.505-0.435,2.761-0.928,3.734-1.488
			c1.171-0.724,1.965-1.429,2.379-2.119c0.449-0.758,0.671-1.534,0.671-2.327c0-1.241-0.498-2.258-1.497-3.052
			c-0.059-0.047-0.128-0.078-0.188-0.122C131.799,64.762,132.042,65.479,132.042,66.307z"/>
		<path fill="#EE2D7B" d="M116.427,21.547c-1.174,0-2.293,0.69-3.361,2.068c-1.103,1.414-1.982,3.084-2.637,5.016
			c-0.69,1.999-1.035,3.705-1.035,5.119c0,0.86,0.242,1.584,0.724,2.172c0.238,0.288,0.492,0.504,0.763,0.649
			c-0.318-0.519-0.486-1.122-0.486-1.821c0-1.414,0.345-3.12,1.035-5.119c0.654-1.932,1.534-3.602,2.637-5.016
			c1.068-1.378,2.188-2.068,3.361-2.068c0.355,0,0.67,0.066,0.95,0.188c-0.06-0.124-0.12-0.248-0.193-0.361
			C117.772,21.824,117.185,21.547,116.427,21.547z"/>
		<path fill="#EE2D7B" d="M76.717,40.575c-0.079-0.052-0.147-0.119-0.223-0.176c0.353,0.478,0.758,0.872,1.223,1.176
			c0.895,0.655,1.963,0.982,3.204,0.982c1.518,0,3.12-0.467,4.81-1.396c1.396-0.784,3.079-2.048,5.04-3.766
			c-0.086-0.499-0.146-1.017-0.146-1.576c0-0.064,0.006-0.127,0.008-0.192c-2.333,2.114-4.306,3.638-5.901,4.534
			c-1.689,0.93-3.292,1.396-4.81,1.396C78.68,41.558,77.612,41.23,76.717,40.575z"/>
		<path fill="#EE2D7B" d="M58.002,40.002c0.093,0.109,0.172,0.228,0.272,0.332c1.377,1.483,3.223,2.224,5.533,2.224
			c0.688,0,1.309-0.051,1.861-0.155c0.379-0.069,0.946-0.206,1.707-0.413c1.136-0.345,2.308-0.965,3.515-1.861
			c0.413-0.275,1.067-0.811,1.967-1.604c0.357-0.281,0.886-0.754,1.57-1.398c-0.153-0.525-0.278-1.06-0.357-1.611
			c-1.008,0.969-1.751,1.646-2.213,2.01c-0.899,0.793-1.554,1.328-1.967,1.604c-1.207,0.896-2.379,1.517-3.515,1.861
			c-0.761,0.207-1.328,0.344-1.707,0.413c-0.553,0.104-1.174,0.155-1.861,0.155C60.88,41.558,59.281,41.034,58.002,40.002z"/>
		<path fill="#EE2D7B" d="M100.575,20.809l-2.143,6.685l-1.188,4.239c-0.242,0.933-0.362,1.845-0.362,2.741
			c0,0.551,0.12,0.999,0.362,1.346c0.207,0.294,0.465,0.454,0.771,0.497c-0.081-0.25-0.133-0.524-0.133-0.843
			c0-0.896,0.12-1.809,0.362-2.741l1.188-4.239l2.536-7.911h-0.312L100.575,20.809z"/>
		<path fill="#EE2D7B" d="M105.672,40.575c-0.014-0.011-0.025-0.023-0.039-0.034c0.306,0.389,0.647,0.737,1.039,1.034
			c0.758,0.655,1.637,0.982,2.636,0.982c1.447,0,2.896-0.568,4.345-1.706c1.194-0.939,2.473-2.32,3.832-4.127
			c-0.075-0.671-0.127-1.387-0.127-2.198c-1.689,2.411-3.258,4.187-4.705,5.325c-1.449,1.138-2.897,1.706-4.345,1.706
			C107.309,41.558,106.43,41.23,105.672,40.575z"/>
		<path fill="#EE2D7B" d="M48.526,71.52c0.055-0.084,0.112-0.163,0.167-0.249c-0.287-0.137-0.537-0.286-0.768-0.443
			C48.08,71.074,48.28,71.305,48.526,71.52z"/>
		<path fill="#EE2D7B" d="M33.91,66.03l-0.091,0.656c0.569,0.089,1.061,0.271,1.483,0.542C34.953,66.687,34.48,66.298,33.91,66.03z"
			/>
		<path fill="#EE2D7B" d="M64.481,78.021c-1.48,1.44-2.781,2.609-3.896,3.486c-1.102,0.862-2.154,1.534-3.153,2.018
			c-0.966,0.413-1.846,0.619-2.637,0.619c-0.664,0-1.247-0.193-1.765-0.539c0.045,0.064,0.079,0.134,0.127,0.196
			c0.689,0.896,1.569,1.343,2.638,1.343c0.791,0,1.671-0.206,2.637-0.619c0.999-0.483,2.052-1.155,3.153-2.018
			c0.958-0.753,2.062-1.734,3.29-2.906C64.708,79.104,64.571,78.583,64.481,78.021z"/>
		<path fill="#EE2D7B" d="M87.128,78.009c-1.487,1.328-2.925,2-4.31,2c-0.208,0-0.483-0.034-0.828-0.104
			c-0.396-0.068-0.688-0.152-0.93-0.258c-0.588-0.173-1.208-0.518-1.863-1.033c-1.171,1.793-2.463,3.153-3.877,4.084
			c-1.378,0.93-2.861,1.396-4.445,1.396c-1.277,0-2.413-0.345-3.413-1.035c-0.155-0.107-0.295-0.229-0.44-0.347
			c0.414,0.515,0.889,0.968,1.44,1.347c1,0.69,2.136,1.035,3.413,1.035c1.584,0,3.067-0.467,4.445-1.396
			c1.414-0.931,2.706-2.291,3.877-4.084c0.655,0.516,1.275,0.86,1.863,1.033c0.241,0.105,0.534,0.189,0.93,0.258
			c0.345,0.07,0.62,0.104,0.828,0.104c1.188,0,2.414-0.498,3.678-1.477C87.342,79.053,87.213,78.55,87.128,78.009z"/>
		<path fill="#EE2D7B" d="M51.864,72.424c0.696-0.123,1.348-0.286,1.968-0.479c0.341-0.594,0.705-1.207,1.117-1.862
			c-1.173,0.618-2.534,1.068-4.085,1.342c-0.104,0.021-0.413,0.724-0.483,0.833c-0.188,0.303-0.387,0.603-0.589,0.896
			c-0.453,0.658-0.941,1.291-1.45,1.906c-1.691,2.032-3.658,3.592-5.906,4.974c-1.243,0.767-2.516,1.478-3.788,2.192
			c-2.165,1.217-4.417,1.868-6.914,1.868c-0.76,0-1.553-0.139-2.379-0.414c-0.493-0.18-0.913-0.391-1.274-0.627
			c0.111,0.207,0.262,0.406,0.464,0.594c0.447,0.412,1.051,0.757,1.81,1.033c0.826,0.275,1.619,0.414,2.379,0.414
			c2.497,0,4.749-0.651,6.914-1.868c1.272-0.715,2.545-1.426,3.788-2.192c2.248-1.382,4.215-2.941,5.906-4.974
			c0.509-0.615,0.997-1.248,1.45-1.906c0.202-0.294,0.401-0.594,0.589-0.896C51.451,73.147,51.759,72.445,51.864,72.424z"/>
		<path fill="#EE2D7B" d="M109.601,79.337c0-0.394,0.038-0.822,0.049-1.226c-1.44,1.253-2.836,1.897-4.183,1.897
			c-0.209,0-0.483-0.034-0.829-0.104c-0.396-0.068-0.688-0.152-0.93-0.258c-0.587-0.173-1.208-0.518-1.862-1.033
			c-1.173,1.793-2.465,3.153-3.877,4.084c-1.379,0.93-2.863,1.396-4.446,1.396c-1.277,0-2.414-0.345-3.412-1.035
			c-0.156-0.107-0.296-0.229-0.441-0.348c0.414,0.515,0.89,0.969,1.441,1.348c0.998,0.69,2.135,1.035,3.412,1.035
			c1.583,0,3.067-0.467,4.446-1.396c1.412-0.931,2.704-2.291,3.877-4.084c0.654,0.516,1.275,0.86,1.862,1.033
			c0.241,0.105,0.534,0.189,0.93,0.258c0.346,0.07,0.62,0.104,0.829,0.104c1.02,0,2.067-0.371,3.142-1.095
			C109.604,79.706,109.601,79.512,109.601,79.337z"/>
		<path fill="#EE2D7B" d="M30.406,78.786c-0.005,0-0.011,0.004-0.016,0.004c0.12,0.372,0.206,0.844,0.254,1.424
			c0,0.69,0.122,1.175,0.365,1.45c0.155,0.283,0.403,0.43,0.735,0.455c-0.066-0.247-0.1-0.547-0.1-0.905
			C31.508,79.595,31.094,78.786,30.406,78.786z"/>
		<path fill="#EE2D7B" d="M83.767,66.22c0-0.516-0.017-0.826-0.05-0.931c-0.036-0.068-0.072-0.171-0.106-0.31
			c0-0.137-0.033-0.292-0.103-0.466c-0.116-0.293-0.447-0.573-0.965-0.843c0.03,0.107,0.068,0.218,0.068,0.309
			c0.034,0.139,0.07,0.241,0.106,0.31c0.033,0.104,0.05,0.415,0.05,0.931c0,3.035-0.862,6.895-2.586,11.581
			c0.362,0.322,0.725,0.561,1.087,0.752C82.931,72.98,83.767,69.2,83.767,66.22z"/>
		<path fill="#EE2D7B" d="M139.3,78.344c0.064,0.148,0.129,0.295,0.185,0.476c0.313,1.033,0.639,1.723,0.983,2.067
			c0.185,0.184,0.386,0.321,0.602,0.416c-0.2-0.374-0.396-0.857-0.585-1.483C140.197,78.888,139.799,78.407,139.3,78.344z"/>
		<path fill="#EE2D7B" d="M121.41,67.255c0.896-0.655,1.895-0.983,2.997-0.983c0.519,0,0.983,0.104,1.397,0.311
			c0.001,0,0.001,0.001,0.001,0.001c-0.026-0.056-0.039-0.12-0.07-0.173c-0.207-0.344-0.518-0.621-0.931-0.828
			c-0.414-0.206-0.879-0.311-1.397-0.311c-1.103,0-2.101,0.328-2.997,0.983c-0.896,0.654-2.087,1.931-3.568,3.827l-0.776,5.065
			l-0.31,3.931l-0.103,3.98l-4.865,0.834c0.021,0.148,0.044,0.307,0.073,0.479l0.052,0.672l5.74-0.984l0.103-3.98l0.31-3.931
			l0.776-5.065C119.323,69.186,120.513,67.909,121.41,67.255z"/>
		<path fill="#EE2D7B" d="M30.095,72.424c0.345-1.582,0.586-2.807,0.723-3.67c0.034-0.345,0.104-0.945,0.208-1.811
			c0.137-0.826,0.258-1.739,0.363-2.74c0.205-1.62,0.445-3.032,0.723-4.239c0.276-1.172,0.621-2.103,1.033-2.792
			c0.449-0.725,1.035-1.431,1.759-2.12c-0.35-0.593-0.7-0.946-1.051-1.076c0.017,0.028,0.034,0.047,0.051,0.076
			c-0.724,0.689-1.31,1.396-1.759,2.12c-0.412,0.689-0.757,1.62-1.033,2.792c-0.277,1.207-0.518,2.619-0.723,4.239
			c-0.105,1.001-0.227,1.914-0.363,2.74c-0.104,0.865-0.174,1.466-0.208,1.811c-0.137,0.863-0.378,2.088-0.723,3.67
			c-0.449,2.07-1.275,3.967-2.481,5.689c-0.966,1.481-2.121,2.739-3.465,3.773c-1.275,1.002-2.758,1.794-4.448,2.379
			c-1.653,0.587-3.377,0.879-5.169,0.879c-2.158,0-3.829-0.451-5.029-1.341c0.252,0.35,0.551,0.668,0.91,0.945
			c1.205,0.931,2.911,1.396,5.119,1.396c1.792,0,3.516-0.292,5.169-0.879c1.69-0.585,3.173-1.377,4.448-2.379
			c1.344-1.034,2.499-2.292,3.465-3.773C28.82,76.391,29.646,74.494,30.095,72.424z"/>
		<path fill="#EE2D7B" d="M137.85,76.406c0.587-0.688,1.154-1.395,1.706-2.118c0.758-1.002,1.36-1.809,1.81-2.433
			c0.504-0.742,0.942-1.405,1.345-2.026l-0.639-1.558c-0.482,0.759-1.052,1.621-1.706,2.584c-0.449,0.624-1.052,1.431-1.81,2.433
			c-0.552,0.724-1.119,1.431-1.706,2.118c-0.827,0.999-1.569,1.846-2.225,2.536c-0.471,0.487-0.837,0.888-1.134,1.187
			c-0.414,0.45-0.949,0.968-1.604,1.552c-0.172,0.173-0.465,0.432-0.879,0.775c-0.104,0.071-0.226,0.155-0.362,0.26
			c-0.484,0.38-0.896,0.673-1.24,0.879c-0.725,0.483-1.448,0.862-2.173,1.138c-0.759,0.273-1.466,0.412-2.12,0.412
			c-0.926,0-1.738-0.258-2.441-0.766c0.122,0.162,0.242,0.325,0.391,0.475c0.827,0.862,1.846,1.291,3.051,1.291
			c0.654,0,1.361-0.139,2.12-0.412c0.725-0.275,1.448-0.654,2.173-1.138c0.345-0.206,0.756-0.499,1.24-0.879
			c0.137-0.104,0.259-0.188,0.362-0.26c0.414-0.344,0.707-0.603,0.879-0.775c0.654-0.584,1.189-1.102,1.604-1.552
			c0.297-0.299,0.663-0.699,1.134-1.187C136.281,78.252,137.023,77.405,137.85,76.406z"/>
		<path fill="#EE2D7B" d="M121.408,74.915c-0.037-0.264-0.131-0.503-0.327-0.696c-0.24-0.241-0.604-0.363-1.086-0.363
			c-0.072-0.011-0.119-0.029-0.185-0.042c-0.001,0.021-0.004,0.038-0.004,0.061c0,0.275,0.086,0.498,0.259,0.671
			c0.172,0.139,0.482,0.242,0.93,0.311C121.152,74.855,121.276,74.889,121.408,74.915z"/>
		<path fill="#EE2D7B" d="M151.294,71.961c-0.206-0.656-0.638-1.447-1.295-2.38c-0.896-1.311-1.344-2.396-1.344-3.258
			c0-0.585,0.139-1.326,0.415-2.223c0.136-0.241,0.206-0.5,0.206-0.775l-0.258-0.207l-0.988,0.124
			c-0.247,0.831-0.375,1.528-0.375,2.081c0,0.861,0.448,1.947,1.344,3.258c0.657,0.933,1.089,1.724,1.295,2.38
			c0.276,0.824,0.412,1.551,0.412,2.171c0,1.688-0.585,3.396-1.756,5.117c-1.139,1.726-2.62,3.156-4.449,4.292
			c-1.792,1.069-3.516,1.604-5.169,1.604c-0.69,0-1.396-0.139-2.12-0.412c-0.438-0.184-0.822-0.421-1.183-0.682
			c0.118,0.192,0.27,0.39,0.476,0.596c0.482,0.448,1.052,0.811,1.707,1.086c0.724,0.273,1.43,0.412,2.12,0.412
			c1.653,0,3.377-0.534,5.169-1.604c1.829-1.136,3.311-2.566,4.449-4.292c1.171-1.722,1.756-3.429,1.756-5.117
			C151.707,73.512,151.571,72.785,151.294,71.961z"/>
		<path fill="#EE2D7B" d="M130.232,35.406c-0.31,0.272-0.619,0.551-0.93,0.824c-1.033,0.969-1.793,1.655-2.275,2.07
			c-0.447,0.412-1.068,0.93-1.861,1.551l-0.518,0.414c-1.172,0.861-2.344,1.292-3.516,1.292c-0.605,0-1.135-0.144-1.595-0.415
			c0.622,0.926,1.477,1.415,2.595,1.415c1.172,0,2.344-0.431,3.516-1.292l0.518-0.414c0.793-0.621,1.414-1.139,1.861-1.551
			c0.482-0.415,1.242-1.102,2.275-2.07c0.311-0.273,0.62-0.552,0.93-0.824v-2.897c-0.38,0.38-0.703,0.7-1,0.993V35.406z"/>
		<path fill="#EE2D7B" d="M119.981,63.595c0.753-2.52,1.453-4.545,2.1-6.061c0.933-2.173,1.81-3.705,2.639-4.603
			c0.791-0.896,1.48-1.345,2.068-1.345c0.113,0,0.202,0.03,0.303,0.046c-0.047-0.292-0.134-0.524-0.27-0.684
			c-0.243-0.241-0.588-0.362-1.033-0.362c-0.588,0-1.277,0.448-2.068,1.345c-0.829,0.897-1.706,2.43-2.639,4.603
			c-0.896,2.103-1.896,5.17-2.998,9.204l1.653-1.862C119.82,63.78,119.897,63.689,119.981,63.595z"/>
		<path fill="#EE2D7B" d="M128.958,57.017c0.86-1.62,1.292-3.171,1.292-4.654c0-1.186-0.479-2.727-1.325-3.574
			c-0.164-0.165-0.354-0.293-0.545-0.417c0.558,0.867,0.87,2.041,0.87,2.991c0,1.483-0.432,3.034-1.292,4.654
			c-0.862,1.654-2.466,3.878-4.81,6.671c0.823-0.241,1.561-0.403,2.231-0.504C127.059,60.088,128.258,58.36,128.958,57.017z"/>
		<path fill="#EE2D7B" d="M95.416,80.216c-0.021-0.032-0.045-0.054-0.066-0.087c-0.588-0.896-0.88-2.222-0.88-3.981
			c0-1.584,0.24-3.307,0.724-5.171c0.448-1.791,1.206-3.29,2.275-4.498c0.784-0.952,1.82-1.497,3.082-1.676
			c0.302-0.323,0.624-0.648,0.984-0.979l-1.085-0.104c-1.689,0-3.017,0.586-3.981,1.758c-1.069,1.208-1.827,2.707-2.275,4.498
			c-0.483,1.864-0.724,3.587-0.724,5.171c0,1.76,0.292,3.085,0.88,3.981C94.664,79.629,95.021,79.984,95.416,80.216z"/>
		<path fill="#EE2D7B" d="M106.415,66.22c0-0.516-0.018-0.826-0.051-0.931c-0.036-0.068-0.071-0.171-0.105-0.31
			c0-0.137-0.033-0.292-0.103-0.466c-0.116-0.293-0.447-0.573-0.966-0.843c0.03,0.107,0.068,0.218,0.068,0.309
			c0.034,0.139,0.069,0.241,0.105,0.31c0.033,0.104,0.051,0.415,0.051,0.931c0,3.035-0.862,6.895-2.586,11.581
			c0.362,0.322,0.725,0.561,1.088,0.752C105.578,72.98,106.415,69.2,106.415,66.22z"/>
		<path fill="#EE2D7B" d="M72.27,23.978c0,1.517-0.604,2.827-1.81,3.931c-1.275,1.102-2.604,1.964-3.98,2.583
			c-1.242,0.589-3.018,1.241-5.328,1.966c0.381,1.585,0.999,2.81,1.862,3.673c0.131,0.116,0.276,0.205,0.416,0.306
			c-0.564-0.787-0.989-1.778-1.278-2.979c2.311-0.725,4.086-1.377,5.328-1.966c1.377-0.619,2.705-1.481,3.98-2.583
			c1.205-1.104,1.81-2.414,1.81-3.931c0-1.378-0.482-2.447-1.448-3.206c-0.073-0.058-0.156-0.098-0.232-0.151
			C72.031,22.269,72.27,23.047,72.27,23.978z"/>
		<path fill="#EE2D7B" d="M89.766,5.885c0.6,0.94,0.549,1.979,0.549,3.045c0,2.345-0.328,4.551-0.982,6.618
			c-0.69,2.173-1.757,4.362-3.206,6.568c-1.55,2.345-3.413,4.705-5.584,7.083l-0.206,3.618c0,1.447,0.275,2.604,0.826,3.466
			c0.279,0.465,0.617,0.794,1.006,1.008c-0.002-0.003-0.004-0.005-0.006-0.008c-0.551-0.861-0.826-2.019-0.826-3.466l0.206-3.618
			c2.171-2.378,4.034-4.738,5.584-7.083c1.449-2.206,2.516-4.396,3.206-6.568c0.654-2.067,0.982-4.273,0.982-6.618
			c0-1.066,0.051-2.104-0.549-3.045c-0.263-0.414-0.623-0.758-1.029-1.036C89.746,5.861,89.758,5.872,89.766,5.885z"/>
		<path fill="#EE2D7B" d="M53.396,8.826c0.655,1.207,0.983,2.569,0.983,4.085c0,2.034-0.432,3.896-1.292,5.585
			c-0.896,1.725-2.035,3.103-3.412,4.137c-1.381,1.032-2.915,1.55-4.602,1.55c-1.149,0-2.143-0.309-2.996-0.897
			c0.205,0.316,0.455,0.611,0.789,0.865c0.896,0.688,1.965,1.032,3.207,1.032c1.687,0,3.221-0.518,4.602-1.55
			c1.377-1.034,2.516-2.412,3.412-4.137c0.86-1.688,1.292-3.551,1.292-5.585c0-1.516-0.328-2.878-0.983-4.085
			c-0.428-0.787-1.002-1.454-1.694-2.021C52.958,8.124,53.197,8.459,53.396,8.826z"/>
		<path fill="#EE2D7B" d="M102.011,14.023c0,2.012-1.633,3.645-3.646,3.645c-0.751,0-1.448-0.229-2.028-0.617
			c0.654,0.975,1.766,1.617,3.028,1.617c2.014,0,3.646-1.633,3.646-3.645c0-1.262-0.643-2.373-1.617-3.028
			C101.783,12.575,102.011,13.272,102.011,14.023z"/>
		<path fill="#EE2D7B" d="M120.564,22.374l0.321-0.177c-0.276-0.365-0.593-0.672-0.946-0.921
			C120.174,21.602,120.387,21.961,120.564,22.374z"/>
		<path fill="#EE2D7B" d="M124.907,26.925l-1.139,4.29c-0.378,1.691-0.567,2.811-0.567,3.362c0,0.689,0.155,1.224,0.465,1.604
			c0.198,0.273,0.443,0.443,0.731,0.52c-0.126-0.313-0.196-0.684-0.196-1.123c0-0.552,0.189-1.671,0.567-3.362l1.139-4.29
			l2.224-7.395h-1.301L124.907,26.925z"/>
	</g>
	<g id="logo_3_">
		<g>
			<path fill-rule="evenodd" clip-rule="evenodd" fill="#FFFFFF" d="M97.365,16.668c2.014,0,3.646-1.633,3.646-3.645
				c0-2.013-1.633-3.646-3.646-3.646s-3.646,1.633-3.646,3.646C93.719,15.035,95.351,16.668,97.365,16.668z M32.748,38.904
				c2.104,1.204,4.481,1.81,7.137,1.81c3.482,0,6.291-0.605,8.429-1.81c2.171-1.208,4.17-2.705,5.998-4.543
				c0.273,1.555,0.924,2.885,1.964,3.973c1.377,1.483,3.223,2.224,5.533,2.224c0.688,0,1.309-0.051,1.861-0.155
				c0.379-0.069,0.946-0.206,1.707-0.413c1.136-0.345,2.308-0.965,3.515-1.861c0.413-0.275,1.067-0.811,1.967-1.604
				c0.462-0.364,1.205-1.041,2.213-2.01c0.115,0.801,0.289,1.58,0.578,2.319c0.482,1.241,1.17,2.154,2.068,2.741
				c0.895,0.655,1.963,0.982,3.204,0.982c1.518,0,3.12-0.467,4.81-1.396c1.596-0.896,3.568-2.42,5.901-4.534
				c-0.002,0.065-0.008,0.128-0.008,0.192c0,1.619,0.362,2.979,1.088,4.085c0.724,1.136,1.637,1.704,2.739,1.704
				c1.897,0,4.784-2.012,8.653-6.014c0.108,0.802,0.28,1.59,0.603,2.345c0.447,1.103,1.102,1.981,1.965,2.636
				c0.758,0.655,1.637,0.982,2.636,0.982c1.447,0,2.896-0.568,4.345-1.706c1.447-1.139,3.016-2.914,4.705-5.325
				c0,4.688,1.258,7.031,3.774,7.031c1.172,0,2.344-0.431,3.516-1.292l0.518-0.414c0.793-0.621,1.414-1.139,1.861-1.551
				c0.482-0.415,1.242-1.102,2.275-2.07c0.311-0.273,0.62-0.552,0.93-0.824v-2.897c-1.068,1.068-1.81,1.792-2.222,2.171
				c-0.139,0.104-0.226,0.191-0.259,0.259c-0.552,0.448-0.966,0.794-1.241,1.035c-0.552,0.518-1.139,0.774-1.759,0.774
				c-0.449,0-0.811-0.188-1.086-0.567c-0.31-0.38-0.465-0.914-0.465-1.604c0-0.552,0.189-1.671,0.567-3.362l1.139-4.29l2.224-7.395
				h-1.396l-5.17,2.844c-0.827-1.93-2.293-2.896-4.395-2.896c-1.277,0-2.655,0.38-4.137,1.138c-1.447,0.759-2.881,1.81-4.293,3.155
				c-1.379,1.342-2.516,2.928-3.412,4.755c-0.647,1.372-1.052,2.769-1.232,4.19c-0.424,0.448-0.928,0.971-1.56,1.602
				c-0.621,0.62-1.052,1.016-1.292,1.188c-0.656,0.552-1.345,0.829-2.068,0.829c-0.38,0-0.689-0.172-0.932-0.517
				c-0.242-0.347-0.362-0.795-0.362-1.346c0-0.896,0.12-1.809,0.362-2.741l1.188-4.239l2.536-7.911h-0.312l-6.41,1.345
				c-0.381,0.966-0.743,1.982-1.086,3.051c-0.518,1.447-1.001,3.017-1.447,4.703c-0.387,1.293-0.665,2.571-0.844,3.843
				c-2.094,1.956-3.572,3.264-4.431,3.915c-0.967,0.761-2.019,1.139-3.154,1.139c-0.898,0-1.604-0.432-2.121-1.294
				c-0.551-0.861-0.826-2.019-0.826-3.466l0.206-3.618c2.171-2.378,4.034-4.738,5.584-7.083c1.449-2.206,2.516-4.396,3.206-6.568
				c0.654-2.067,0.982-4.273,0.982-6.618c0-1.066,0.051-2.104-0.549-3.045c-0.57-0.897-1.563-1.501-2.599-1.701
				c-1.91-0.367-3.404,0.847-4.585,2.196c-0.828,0.949-1.344,2.098-1.885,3.223l-0.361,0.724c-0.036,0.069-0.156,0.362-0.362,0.879
				c-0.172,0.345-0.362,0.759-0.567,1.241c-1.002,2.275-1.863,4.498-2.587,6.67c-0.759,2.31-1.43,4.793-2.018,7.446
				c-0.485,2.259-0.722,4.266-0.803,6.121l-2.919,2.723c-0.654,0.551-1.378,1.014-2.172,1.395c-0.862,0.381-1.689,0.567-2.482,0.567
				c-1.344,0-2.48-0.413-3.412-1.238c-0.863-0.863-1.481-2.088-1.862-3.673c2.311-0.725,4.086-1.377,5.328-1.966
				c1.377-0.619,2.705-1.481,3.98-2.583c1.205-1.104,1.81-2.414,1.81-3.931c0-1.378-0.482-2.447-1.448-3.206
				c-0.999-0.793-2.241-1.189-3.722-1.189c-1.553,0-3.018,0.38-4.396,1.137c-1.414,0.794-2.688,1.828-3.827,3.103
				c-1.103,1.311-1.999,2.827-2.689,4.551c-0.561,1.429-0.879,2.847-0.984,4.252c-1.75,1.97-3.389,3.384-4.908,4.229
				c-1.483,0.86-3.189,1.291-5.119,1.291c-3.034,0-5.566-1.138-7.602-3.412c-1.999-2.204-2.998-5.083-2.998-8.635
				c0-1.966,0.343-4.138,1.033-6.516c0.69-2.379,1.569-4.48,2.639-6.309c1.169-1.93,2.394-3.446,3.669-4.55
				c1.38-1.206,2.672-1.81,3.88-1.81c1.066,0,1.945,0.396,2.636,1.188c0.621,0.827,0.93,1.948,0.93,3.361
				c0,1.311-0.256,2.586-0.773,3.825c-0.621,1.276-1.345,2.311-2.172,3.104c-0.862,0.758-1.706,1.137-2.535,1.137
				c-0.896,0-1.637-0.5-2.222-1.499c-0.726,0.758-1.088,1.602-1.088,2.533c0,1.068,0.431,1.931,1.294,2.586
				c0.896,0.688,1.965,1.032,3.207,1.032c1.687,0,3.221-0.518,4.602-1.55c1.377-1.034,2.516-2.412,3.412-4.137
				c0.86-1.688,1.292-3.551,1.292-5.585c0-1.516-0.328-2.878-0.983-4.085c-0.654-1.205-1.62-2.153-2.895-2.844
				C48.26,4.328,46.795,4,45.106,4c-2.24,0-4.428,0.587-6.566,1.758c-2.207,1.174-4.275,2.828-6.204,4.965
				c-2.001,2.24-3.517,4.74-4.552,7.497c-1.136,2.827-1.705,5.775-1.705,8.843c0,2.689,0.586,5.033,1.756,7.032
				C29.042,36.199,30.679,37.799,32.748,38.904z M109.429,27.631c0.654-1.932,1.534-3.602,2.637-5.016
				c1.068-1.378,2.188-2.068,3.361-2.068c0.758,0,1.345,0.277,1.757,0.827c0.379,0.587,0.57,1.311,0.57,2.171
				c0,1.586-0.328,3.31-0.982,5.171c-0.656,1.896-1.535,3.553-2.639,4.964c-1.102,1.414-2.224,2.121-3.359,2.121
				c-0.621,0-1.172-0.292-1.656-0.879c-0.481-0.588-0.724-1.312-0.724-2.172C108.394,31.336,108.739,29.63,109.429,27.631z
				 M82.696,14.497c0.173-0.654,0.415-1.413,0.724-2.275c0.14-0.379,0.38-0.982,0.724-1.81c0.105-0.241,0.293-0.672,0.57-1.293
				c0.276-0.586,0.552-1.086,0.827-1.499c0.31-0.483,0.603-0.724,0.88-0.724c0.275,0,0.518,0.189,0.724,0.568
				c0.173,0.449,0.259,0.948,0.259,1.5c0,1.379-0.312,2.999-0.932,4.86c-0.621,1.931-1.465,3.809-2.534,5.637
				c-1.032,1.826-2.274,3.516-3.722,5.068C81.006,20.53,81.835,17.186,82.696,14.497z M60.669,24.892
				c0.448-1.311,1.086-2.379,1.913-3.208c0.793-0.724,1.482-1.085,2.069-1.085c0.55,0,0.981,0.207,1.292,0.621
				c0.31,0.413,0.466,1.018,0.466,1.809c0,1.69-0.534,3.069-1.604,4.136c-1.103,1.104-2.723,1.965-4.861,2.588
				C59.945,27.959,60.188,26.34,60.669,24.892z M28.818,66.754c0.034-0.345,0.104-0.945,0.208-1.811
				c0.137-0.826,0.258-1.739,0.363-2.74c0.205-1.62,0.445-3.032,0.723-4.239c0.276-1.172,0.621-2.103,1.033-2.792
				c0.449-0.725,1.035-1.431,1.759-2.12c-0.447-0.758-0.896-1.138-1.344-1.138c-0.518,0-1.121,0.154-1.81,0.465
				c-0.07,0.035-0.295,0.139-0.674,0.311l-0.412,0.207c-0.139,0.069-0.311,0.173-0.518,0.311c-0.242,0.138-0.415,0.241-0.518,0.311
				c-0.794,0.551-1.414,1.052-1.861,1.499c-0.861,0.897-1.535,1.861-2.017,2.896c-0.518,0.999-0.948,2.274-1.294,3.826
				c-0.275,1.104-0.618,3.153-1.033,6.151c-0.345,2.689-0.862,5.017-1.551,6.98c-0.656,1.966-1.519,3.501-2.585,4.604
				c-1.036,1.103-2.138,1.653-3.31,1.653c-1.792,0-2.689-1.035-2.689-3.102l0.206-1.655l0.209-1.551c0-0.93-0.312-1.396-0.933-1.396
				c-0.412,0-1.154,0.277-2.224,0.828c-0.481,0.273-0.98,0.568-1.498,0.878C6.948,75.2,6.722,75.389,6.377,75.7
				c-0.207,0.173-0.412,0.329-0.621,0.463l-0.153,1.554c0,1.759,0.602,3.1,1.81,4.032c1.205,0.931,2.911,1.396,5.119,1.396
				c1.792,0,3.516-0.292,5.169-0.879c1.69-0.585,3.173-1.377,4.448-2.379c1.344-1.034,2.499-2.292,3.465-3.773
				c1.206-1.723,2.032-3.619,2.481-5.689C28.44,68.842,28.681,67.617,28.818,66.754z M149.294,69.961
				c-0.206-0.656-0.638-1.447-1.295-2.38c-0.896-1.311-1.344-2.396-1.344-3.258c0-0.585,0.139-1.326,0.415-2.223
				c0.136-0.241,0.206-0.5,0.206-0.775l-0.258-0.207l-1.24,0.155l-2.536,0.466l-1.858,0.413c-0.724,2.067-1.88,4.24-3.466,6.516
				c-1.286,1.868-2.731,3.641-4.291,5.324l-0.455,0.543c-0.041,0.042-0.073,0.088-0.114,0.135l-0.258,0.308
				c-0.309,0.378-0.758,0.859-1.344,1.447c-0.551,0.551-1.086,1.033-1.603,1.447c-0.793,0.585-1.5,0.88-2.119,0.88
				c-0.966,0-1.45-0.518-1.45-1.553l0.054-0.568l0.052-0.776l0.05-0.621v-0.31c0-1.861-0.981-3.015-2.946-3.465
				c1.861-0.482,3.361-1.052,4.498-1.706c1.171-0.724,1.965-1.429,2.379-2.119c0.449-0.758,0.671-1.534,0.671-2.327
				c0-1.241-0.498-2.258-1.497-3.052c-1.002-0.792-2.277-1.188-3.828-1.188c-0.965,0-2.153,0.207-3.567,0.621
				c2.344-2.793,3.947-5.017,4.81-6.671c0.86-1.62,1.292-3.171,1.292-4.654c0-1.186-0.479-2.727-1.325-3.574
				c-0.827-0.828-2.043-1.125-3.185-1.044c-1.369,0.098-2.612,0.761-3.706,1.554c-2.208,1.601-3.6,3.625-4.864,6.013
				c-0.622,1.171-1.225,2.344-1.812,3.515c-1.103,2.311-1.981,4.603-2.637,6.879c-0.654,2.31-1.171,4.637-1.551,6.98
				c-0.187,1.336-0.309,2.464-0.385,3.438c-1.725,1.906-3.148,2.869-4.27,2.869c-0.896,0-1.792-0.396-2.688-1.191
				c1.724-4.687,2.586-8.546,2.586-11.581c0-0.516-0.018-0.826-0.051-0.931c-0.036-0.068-0.071-0.171-0.105-0.31
				c0-0.137-0.033-0.292-0.103-0.466c-0.137-0.344-0.552-0.672-1.241-0.982c-0.654-0.311-1.689-0.465-3.102-0.465
				c-2.449,0-4.74,0.621-6.878,1.861c-2.068,1.241-3.758,2.947-5.066,5.118c-1.137,1.904-1.738,3.981-1.862,6.212
				c-1.661,1.805-3.045,2.734-4.137,2.734c-0.896,0-1.792-0.396-2.688-1.191c1.724-4.687,2.586-8.546,2.586-11.581
				c0-0.516-0.017-0.826-0.05-0.931c-0.036-0.068-0.072-0.171-0.106-0.31c0-0.137-0.033-0.292-0.103-0.466
				c-0.137-0.344-0.552-0.672-1.241-0.982c-0.654-0.311-1.689-0.465-3.102-0.465c-2.449,0-4.74,0.621-6.878,1.861
				c-2.067,1.241-3.757,2.947-5.066,5.118c-1.134,1.898-1.734,3.969-1.859,6.19l-2.589,2.395c-0.654,0.618-1.188,1.019-1.601,1.188
				c-0.414,0.175-0.776,0.259-1.085,0.259c-0.555,0-0.983-0.224-1.295-0.673c-0.345-0.343-0.518-0.896-0.518-1.654l0.156-1.55
				l0.776-2.586l1.395-4.034l2.327-6.463l-2.273,0.103c-1.173,2.068-2.295,3.586-3.362,4.552c-1.137,1.032-2.464,1.655-3.981,1.861
				c0.758-1.931,1.138-3.447,1.138-4.551c0-1.344-0.656-2.017-1.964-2.017c-0.863,0-1.64,0.259-2.327,0.775
				c-0.655,0.518-1.172,1.086-1.551,1.706c-0.346,0.621-0.621,1.362-0.829,2.225l-0.257,1.655c0,1.206,0.725,2.154,2.171,2.843
				c-0.932,1.447-1.831,2.651-3.312,4.101c-1.069,1.046-2.316,2.087-3.419,2.626c0.118-0.228,0.271-0.438,0.37-0.679
				c0.552-1.309,0.827-2.688,0.827-4.136c0-4.137-2.241-6.892-6.722-8.272c2.24-0.586,3.98-1.311,5.222-2.171
				c1.275-0.862,2.138-1.81,2.585-2.845c0.518-0.999,0.777-2.085,0.777-3.258c0-1.826-0.604-3.446-1.812-4.859
				c-1.172-1.38-2.81-2.465-4.911-3.259c-2.034-0.757-4.431-1.137-7.188-1.137c-3.276,0-6.137,0.431-8.584,1.293
				c-2.482,0.861-4.551,1.998-6.204,3.412c-1.656,1.414-2.879,2.896-3.672,4.447c-0.826,1.55-1.241,3.016-1.241,4.396
				c0,0.653,0.155,1.379,0.465,2.171c0.312,0.758,0.707,1.414,1.19,1.965c0.482,0.517,0.931,0.775,1.345,0.775
				c0.412,0,1.309-0.292,2.689-0.88c1.309-0.584,1.963-1.033,1.963-1.344v-0.775c-0.069-0.068-0.12-0.137-0.154-0.206
				c-0.069-0.069-0.225-0.156-0.465-0.259c-1.586-0.654-2.379-1.724-2.379-3.207c0-1.24,0.378-2.446,1.138-3.619
				c0.791-1.206,1.81-2.257,3.051-3.154c1.345-0.896,2.825-1.619,4.445-2.171s3.293-0.827,5.017-0.827
				c1.689,0,3.206,0.311,4.55,0.93c1.345,0.69,2.345,1.587,3,2.689c0.653,1.173,0.981,2.518,0.981,4.033
				c0,1.379-0.259,2.62-0.773,3.723c-0.518,1.137-1.191,1.966-2.018,2.481c-0.69,0.38-1.484,0.569-2.378,0.569l-0.259,1.862
				c2.205,0.344,3.309,2.051,3.309,5.118c0,1-0.088,2.155-0.258,3.464c-0.209,1.174-0.519,2.466-0.932,3.88
				c0,0.034-0.034,0.139-0.104,0.31c-0.275,0.689-0.464,1.138-0.568,1.344c-0.241,0.448-0.499,0.862-0.775,1.242
				c-0.519,0.723-1.068,1.085-1.653,1.085c-0.382,0-0.657-0.155-0.827-0.465c-0.243-0.275-0.365-0.76-0.365-1.45
				c-0.136-1.619-0.55-2.428-1.238-2.428c-0.483,0-1.019,0.446-1.603,1.343c-0.621,0.862-0.933,1.569-0.933,2.12
				c0,0.518,0.225,0.982,0.674,1.397c0.447,0.412,1.051,0.757,1.81,1.033c0.826,0.275,1.619,0.414,2.379,0.414
				c2.497,0,4.749-0.651,6.914-1.868c1.272-0.715,2.545-1.426,3.788-2.192c2.248-1.382,4.215-2.941,5.906-4.974
				c0.509-0.615,0.997-1.248,1.45-1.906c0.202-0.294,0.401-0.594,0.589-0.896c0.07-0.109,0.379-0.812,0.483-0.833
				c1.551-0.273,2.912-0.724,4.085-1.342c-1.345,2.138-2.31,3.947-2.896,5.428c-0.621,1.586-0.931,2.967-0.931,4.137
				c0,1.207,0.344,2.26,1.034,3.155c0.689,0.896,1.569,1.343,2.638,1.343c0.791,0,1.671-0.206,2.637-0.619
				c0.999-0.483,2.052-1.155,3.153-2.018c1.115-0.877,2.416-2.046,3.896-3.486c0.135,0.838,0.335,1.621,0.654,2.298
				c0.552,1.137,1.326,2.051,2.327,2.739c1,0.69,2.136,1.035,3.413,1.035c1.584,0,3.067-0.467,4.445-1.396
				c1.414-0.931,2.706-2.291,3.877-4.084c0.655,0.516,1.275,0.86,1.863,1.033c0.241,0.105,0.534,0.189,0.93,0.258
				c0.345,0.07,0.62,0.104,0.828,0.104c1.385,0,2.822-0.672,4.31-2c0.132,0.846,0.333,1.631,0.655,2.311
				c0.551,1.137,1.325,2.051,2.327,2.739c0.998,0.69,2.135,1.035,3.412,1.035c1.583,0,3.067-0.467,4.446-1.396
				c1.412-0.931,2.704-2.291,3.877-4.084c0.654,0.516,1.275,0.86,1.862,1.033c0.241,0.105,0.534,0.189,0.93,0.258
				c0.346,0.07,0.62,0.104,0.829,0.104c1.347,0,2.742-0.645,4.183-1.897c-0.011,0.403-0.049,0.832-0.049,1.226
				c0,0.654,0.036,1.534,0.105,2.637c0,0.311,0.05,0.775,0.154,1.397l0.052,0.672l5.74-0.984l0.103-3.98l0.31-3.931l0.776-5.065
				c1.481-1.896,2.672-3.173,3.568-3.827c0.896-0.655,1.895-0.983,2.997-0.983c0.519,0,0.983,0.104,1.397,0.311
				c0.413,0.207,0.724,0.484,0.931,0.828c0.205,0.345,0.312,0.76,0.312,1.239c0,0.795-0.382,1.604-1.139,2.433
				c-0.76,0.826-2.208,1.241-4.343,1.241c-0.621,0-1.069,0.101-1.344,0.309c-0.278,0.209-0.415,0.621-0.415,1.242
				c0,0.275,0.086,0.498,0.259,0.671c0.172,0.139,0.482,0.242,0.93,0.311c0.482,0,0.846,0.122,1.086,0.363
				c0.242,0.239,0.361,0.533,0.361,0.879l-0.309,1.965c-0.206,1.241-0.312,2.138-0.312,2.689c0,1.241,0.415,2.273,1.241,3.102
				c0.827,0.862,1.846,1.291,3.051,1.291c0.654,0,1.361-0.139,2.12-0.412c0.725-0.275,1.448-0.654,2.173-1.138
				c0.345-0.206,0.756-0.499,1.24-0.879c0.137-0.104,0.259-0.188,0.362-0.26c0.414-0.344,0.707-0.603,0.879-0.775
				c0.654-0.584,1.189-1.102,1.604-1.552c0.297-0.299,0.663-0.699,1.134-1.187c0.655-0.69,1.397-1.537,2.225-2.536
				c0.587-0.688,1.154-1.395,1.706-2.118c0.758-1.002,1.36-1.809,1.81-2.433c0.654-0.963,1.224-1.825,1.706-2.584l0.933,2.275
				l1.394,2.273c1.104,1.727,1.657,3.104,1.657,4.137c0,0.76-0.209,1.483-0.621,2.172c-0.448,0.724-0.981,1.277-1.604,1.655
				c-0.655,0.448-1.327,0.672-2.018,0.672c-0.515,0-0.963-0.189-1.345-0.569c-0.345-0.345-0.67-1.034-0.983-2.067
				c-0.309-0.999-0.739-1.501-1.29-1.501c-0.38,0-1.034,0.552-1.966,1.656c-0.966,1.105-1.447,1.879-1.447,2.325
				c0,0.416,0.239,0.862,0.724,1.347c0.482,0.448,1.052,0.811,1.707,1.086c0.724,0.273,1.43,0.412,2.12,0.412
				c1.653,0,3.377-0.534,5.169-1.604c1.829-1.136,3.311-2.566,4.449-4.292c1.171-1.722,1.756-3.429,1.756-5.117
				C149.707,71.512,149.571,70.785,149.294,69.961z M75.252,66.031c-0.586,1.102-0.879,2.359-0.879,3.773
				c0,2.378,0.791,4.516,2.378,6.411c-1.379,2.207-2.673,3.31-3.878,3.31c-0.862,0-1.586-0.465-2.172-1.396
				c-0.586-0.896-0.879-2.222-0.879-3.981c0-1.584,0.239-3.307,0.725-5.171c0.447-1.791,1.204-3.29,2.273-4.498
				c0.965-1.172,2.293-1.758,3.982-1.758l1.086,0.104C76.681,63.928,75.802,64.996,75.252,66.031z M97.9,66.031
				c-0.587,1.102-0.879,2.359-0.879,3.773c0,2.378,0.791,4.516,2.378,6.411c-1.378,2.207-2.673,3.31-3.878,3.31
				c-0.862,0-1.587-0.465-2.171-1.396c-0.588-0.896-0.88-2.222-0.88-3.981c0-1.584,0.24-3.307,0.724-5.171
				c0.448-1.791,1.206-3.29,2.275-4.498c0.965-1.172,2.292-1.758,3.981-1.758l1.085,0.104C99.329,63.928,98.45,64.996,97.9,66.031z
				 M118.736,62.876l-1.653,1.862c1.103-4.034,2.102-7.102,2.998-9.204c0.933-2.173,1.81-3.705,2.639-4.603
				c0.791-0.896,1.48-1.345,2.068-1.345c0.445,0,0.79,0.121,1.033,0.362c0.207,0.242,0.311,0.639,0.311,1.189
				c0,0.896-0.311,1.947-0.932,3.154c-0.724,1.275-1.568,2.567-2.533,3.877C121.563,59.584,120.252,61.153,118.736,62.876z"/>
		</g>
	</g>
</g>
</svg>
